<?xml version="1.0" encoding="UTF-8"?>
<svg width="503px" height="100px" viewBox="0 0 503 100" version="1.1" xmlns="http://www.w3.org/2000/svg" xmlns:xlink="http://www.w3.org/1999/xlink">
    <!-- Generator: Sketch 51.2 (57519) - http://www.bohemiancoding.com/sketch -->
    <title>logo-black</title>
    <desc>Created with Sketch.</desc>
    <defs></defs>
    <g id="Page-1" stroke="none" stroke-width="1" fill="none" fill-rule="evenodd">
        <g id="0-0-0-Logo" transform="translate(-465.000000, -1484.000000)">
            <g id="logo-black" transform="translate(465.000000, 1484.000000)">
                <path d="M91.3317618,92 C90.4720508,92 89.8272772,91.7264597 89.3974217,91.1793709 C88.9675662,90.6322821 88.8307961,89.9679699 88.9871072,89.1864144 L105.165224,12.867906 C105.321535,12.008195 105.731846,11.3048057 106.396168,10.7577168 C107.06049,10.210628 107.822495,9.93708772 108.682206,9.93708772 L118.178057,9.93708772 C119.663013,9.93708772 120.718097,10.6795543 121.343341,12.1645096 L135.059571,54.1338276 L166.595176,12.1645096 C167.767509,10.6795543 169.096133,9.93708772 170.581089,9.93708772 L179.959707,9.93708772 C180.819418,9.93708772 181.464192,10.210628 181.894047,10.7577168 C182.323903,11.3048057 182.460673,12.008195 182.304362,12.867906 L166.009012,89.1864144 C165.852701,90.0461254 165.44239,90.7299762 164.778068,91.2379872 C164.113746,91.7459983 163.390818,92 162.609263,92 L152.527248,92 C151.667537,92 151.022763,91.7264597 150.592908,91.1793709 C150.163052,90.6322821 150.026282,89.9679699 150.182593,89.1864144 L160.616306,39.8314343 L138.45932,69.725781 C137.677765,70.585492 136.954837,71.2302655 136.290514,71.660121 C135.626192,72.0899765 134.864187,72.3049011 134.004476,72.3049011 L129.080701,72.3049011 C127.361279,72.3049011 126.228041,71.4452029 125.680952,69.725781 L115.598937,38.0729434 L104.813526,89.1864144 C104.657215,89.9679699 104.266443,90.6322821 103.641199,91.1793709 C103.015954,91.7264597 102.312565,92 101.531009,92 L91.3317618,92 Z M209.854054,93.1723273 C201.960344,93.1723273 195.805687,91.2770838 191.389898,87.4865398 C186.97411,83.6959959 184.766249,78.5182687 184.766249,71.9532029 C184.766249,70.0774698 184.922558,68.3189964 185.23518,66.6777299 C185.93858,62.535486 186.681046,59.0966936 187.462602,56.3612495 C189.572802,47.9986062 193.48052,41.4922546 199.185875,36.8419997 C204.89123,32.1917447 212.315895,29.8666521 221.460094,29.8666521 C229.353804,29.8666521 235.528,31.7814343 239.982866,35.611056 C244.437732,39.4406777 246.665131,44.6770207 246.665131,51.3202421 C246.665131,52.3362641 246.508823,54.0165832 246.196201,56.3612495 C245.023867,61.9884488 244.281401,65.4272412 243.968779,66.6777299 C241.780423,75.0403733 237.872705,81.5467248 232.245505,86.1969798 C226.618306,90.8472347 219.154564,93.1723273 209.854054,93.1723273 Z M211.026381,81.3318214 C215.168625,81.3318214 218.70511,80.0422742 221.635943,77.4631413 C224.566776,74.8840083 226.657406,71.0935212 227.907894,66.0915663 C228.454983,63.903211 229.119295,60.8551904 229.900851,56.9474132 C230.213473,55.3061467 230.369782,53.6258277 230.369782,51.9064057 C230.369782,45.0287177 227.009144,41.5899253 220.287767,41.5899253 C216.145523,41.5899253 212.628576,42.9185497 209.736821,45.5758382 C206.845066,48.2331267 204.773975,52.0236138 203.523486,56.9474132 C202.663775,59.6828573 201.999463,62.7308778 201.53053,66.0915663 C201.217908,67.7328327 201.061599,69.4522289 201.061599,71.2498065 C201.061599,77.9711834 204.38316,81.3318214 211.026381,81.3318214 Z M270.228911,92 C269.134733,92 268.353189,91.7459983 267.884256,91.2379872 C267.415323,90.7299762 267.063628,90.0070482 266.829161,89.0691817 L256.395448,34.2042632 C256.239137,33.1882411 256.414984,32.4066974 256.922996,31.8596086 C257.431007,31.3125198 258.193012,31.0389794 259.209034,31.0389794 L268.235954,31.0389794 C269.955376,31.0389794 270.932306,31.9377547 271.166772,33.7353323 L277.849038,74.1806248 L301.998981,33.2664014 C302.936847,31.781446 304.14824,31.0389794 305.633196,31.0389794 L315.949676,31.0389794 C316.57492,31.0389794 317.082924,31.2148268 317.473702,31.5665267 C317.864479,31.9182267 318.059865,32.4066915 318.059865,33.0319359 C318.059865,33.5790247 317.903556,34.1261053 317.590934,34.6731941 L284.062373,89.0691817 C283.437129,90.0852038 282.792355,90.8276703 282.128033,91.2966036 C281.463711,91.7655369 280.584474,92 279.490296,92 L270.228911,92 Z M341.85811,93.1723273 C334.355177,93.1723273 328.571754,91.2966224 324.507665,87.5451562 C320.443577,83.79369 318.411563,78.4401155 318.411563,71.4842719 C318.411563,68.8269834 318.606949,66.443275 318.997727,64.3330753 C319.075883,63.7859865 319.505732,61.8321271 320.287287,58.4714387 C322.553798,49.5617065 326.793673,42.5668901 333.007038,37.4867797 C339.220404,32.4066693 346.625531,29.8666521 355.222641,29.8666521 C362.96004,29.8666521 368.80208,31.84005 372.748935,35.7869051 C376.69579,39.7337601 378.669188,45.1459505 378.669188,52.0236384 C378.669188,54.6027714 378.35657,57.5335604 377.731326,60.8160933 L377.145162,63.2779807 C376.988851,64.0595362 376.57854,64.7238483 375.914218,65.2709371 C375.249896,65.818026 374.487891,66.0915663 373.62818,66.0915663 L334.824146,66.0915663 L334.58968,67.0294281 C334.355214,68.4362279 334.237982,69.7648523 334.237982,71.015341 C334.237982,74.2978739 335.078142,76.9746612 336.758486,79.0457831 C338.43883,81.1169051 340.881154,82.1524505 344.085532,82.1524505 C348.540398,82.1524505 352.565348,80.3548999 356.160503,76.7597449 C357.020214,75.9000339 357.684526,75.3724918 358.153459,75.177103 C358.622393,74.9817141 359.325782,74.8840212 360.263649,74.8840212 L370.580129,74.8840212 C371.283529,74.8840212 371.83061,75.1184843 372.221387,75.5874175 C372.612165,76.0563508 372.729397,76.6425086 372.573085,77.3459085 C372.025997,79.2216416 370.365216,81.4099641 367.590694,83.9109415 C364.816173,86.411919 361.181994,88.5807028 356.68805,90.4173581 C352.194106,92.2540134 347.250842,93.1723273 341.85811,93.1723273 Z M362.608303,56.1267841 L362.608303,55.8923186 C362.920925,54.4073632 363.077234,52.883353 363.077234,51.3202421 C363.077234,48.0377092 362.217536,45.4390762 360.498114,43.5242654 C358.778692,41.6094545 356.277752,40.6520635 352.995219,40.6520635 C349.009286,40.6520635 345.570494,42.0393036 342.678739,44.8138254 C339.786984,47.5883473 337.872202,51.2811414 336.934335,55.8923186 L336.934335,56.1267841 L362.608303,56.1267841 Z" id="Move" fill="#191A20"></path>
                <path d="M389.335322,92 C388.475611,92 387.830838,91.7264597 387.400982,91.1793709 C386.971127,90.6322821 386.834357,89.9679699 386.990668,89.1864144 L403.40325,12.7506733 C403.481406,11.9691178 403.852639,11.3048057 404.516961,10.7577168 C405.181283,10.210628 405.904211,9.93708772 406.685767,9.93708772 L418.057342,9.93708772 C418.838897,9.93708772 419.444593,10.210628 419.874449,10.7577168 C420.304304,11.3048057 420.441075,11.9691178 420.284763,12.7506733 L403.989414,89.1864144 C403.833103,89.9679699 403.442331,90.6322821 402.817086,91.1793709 C402.191842,91.7264597 401.488453,92 400.706897,92 L389.335322,92 Z M448.772317,92 C442.285407,92 437.498452,90.7690686 434.411308,88.3071689 C431.324164,85.8452693 429.780615,82.1524751 429.780615,77.2286758 C429.780615,74.8840094 430.054155,72.5003011 430.601244,70.0774791 L436.345648,43.5828818 L427.084262,43.5828818 C426.224551,43.5828818 425.599316,43.3093414 425.208538,42.7622526 C424.81776,42.2151638 424.700529,41.5508516 424.85684,40.7692962 L426.263633,33.852565 C426.419944,33.0710096 426.830254,32.4066974 427.494576,31.8596086 C428.158899,31.3125198 428.920904,31.0389794 429.780615,31.0389794 L438.924768,31.0389794 L443.145146,11.578346 C443.301457,10.718635 443.692229,10.0347842 444.317473,9.52677316 C444.942718,9.01876211 445.646107,8.7647604 446.427663,8.7647604 L456.157979,8.7647604 C457.01769,8.7647604 457.662464,9.0383007 458.092319,9.58538952 C458.522175,10.1324783 458.658945,10.7967905 458.502634,11.578346 L454.282256,31.0389794 L468.936347,31.0389794 C469.796058,31.0389794 470.421293,31.3125198 470.812071,31.8596086 C471.202849,32.4066974 471.32008,33.0710096 471.163769,33.852565 L469.639744,40.7692962 C469.561588,41.5508516 469.190355,42.2151638 468.526033,42.7622526 C467.86171,43.3093414 467.099705,43.5828818 466.239994,43.5828818 L451.703136,43.5828818 L446.193197,68.7879191 C445.724264,70.8981188 445.489801,72.6956694 445.489801,74.1806248 C445.489801,75.8218912 445.91965,77.033284 446.779361,77.8148394 C447.639072,78.5963949 449.124005,78.9871668 451.234205,78.9871668 L459.792194,78.9871668 C460.651905,78.9871668 461.27714,79.2607071 461.667918,79.8077959 C462.058696,80.3548847 462.175927,81.0191969 462.019616,81.8007523 L460.49559,89.1864144 C460.339279,90.0461254 459.928969,90.7299762 459.264647,91.2379872 C458.600325,91.7459983 457.877397,92 457.095841,92 L448.772317,92 Z M478.197733,69.1396173 C477.416178,69.1396173 476.83002,68.8856156 476.439242,68.3776045 C476.048464,67.8695935 475.931233,67.1857427 476.087544,66.3260317 L487.459119,12.7506733 C487.537274,11.9691178 487.908508,11.3048057 488.57283,10.7577168 C489.237152,10.210628 489.96008,9.93708772 490.741635,9.93708772 L500.471952,9.93708772 C501.331663,9.93708772 501.956898,10.210628 502.347676,10.7577168 C502.738453,11.3048057 502.855685,11.9691178 502.699374,12.7506733 L491.327799,66.3260317 C491.171488,67.1075872 490.761177,67.7718994 490.096855,68.3189882 C489.432533,68.866077 488.709605,69.1396173 487.92805,69.1396173 L478.197733,69.1396173 Z M472.687795,92 C471.828084,92 471.18331,91.7264597 470.753455,91.1793709 C470.323599,90.6322821 470.186829,89.9679699 470.34314,89.1864144 L472.687795,78.0493049 C472.844106,77.2677495 473.254416,76.6034373 473.918738,76.0563485 C474.58306,75.5092597 475.345066,75.2357193 476.204777,75.2357193 L487.341886,75.2357193 C488.123442,75.2357193 488.729138,75.5092597 489.158993,76.0563485 C489.588849,76.6034373 489.725619,77.2677495 489.569308,78.0493049 L487.224653,89.1864144 C487.068342,89.9679699 486.658032,90.6322821 485.99371,91.1793709 C485.329388,91.7264597 484.60646,92 483.824904,92 L472.687795,92 Z" id="It!" fill="#191A20"></path>
                <path d="M61.1910764,44.0489407 C61.4978219,44.3241814 61.7909593,44.6214096 62.0683174,44.9404735 C65.6916313,49.1086194 65.2499578,55.4248456 61.0818119,59.0481596 L17.3086562,97.0995832 C13.1405103,100.722897 6.82428408,100.281224 3.20097011,96.1130777 C-0.422343859,91.9449318 0.0193297033,85.6287056 4.18747562,82.0053916 L39.8565782,50.9987138 L6.42283553,17.5649712 C2.51759262,13.6597282 2.51759262,7.32807845 6.42283553,3.42283553 C10.3280785,-0.482407384 16.6597282,-0.482407384 20.5649712,3.42283553 L61.1910764,44.0489407 Z M53.5,58 C57.0898509,58 60,55.0898509 60,51.5 C60,47.9101491 57.0898509,45 53.5,45 C49.9101491,45 47,47.9101491 47,51.5 C47,55.0898509 49.9101491,58 53.5,58 Z M13.5,17 C17.0898509,17 20,14.0898509 20,10.5 C20,6.91014913 17.0898509,4 13.5,4 C9.91014913,4 7,6.91014913 7,10.5 C7,14.0898509 9.91014913,17 13.5,17 Z M11.5,96 C15.0898509,96 18,93.0898509 18,89.5 C18,85.9101491 15.0898509,83 11.5,83 C7.91014913,83 5,85.9101491 5,89.5 C5,93.0898509 7.91014913,96 11.5,96 Z" id="Combined-Shape" fill="#0A58F7"></path>
            </g>
        </g>
    </g>
</svg>