<?xml version="1.0" encoding="utf-8"?>
<!-- Generator: Adobe Illustrator 19.1.0, SVG Export Plug-In . SVG Version: 6.00 Build 0)  -->
<svg version="1.1" id="Layer_1" xmlns="http://www.w3.org/2000/svg" xmlns:xlink="http://www.w3.org/1999/xlink" x="0px" y="0px"
	 viewBox="0 0 792 612" style="enable-background:new 0 0 792 612;" xml:space="preserve">
<style type="text/css">
	.st0{opacity:0;}
	.st1{fill:#50B1E4;}
	.st2{fill:#2FB1E5;}
	.st3{fill:#808080;}
	.st4{fill:#FFFFFF;}
	.st5{fill:#7D7D7D;}
</style>
<rect x="131" y="191.2" class="st0" width="530" height="217.3"/>
<g>
	<path class="st1" d="M238.8,277.3c-0.1-0.1-0.3-0.3-0.5-0.4l-40.3-40c-5.6-5.6-14.7-5.6-20.4,0c-5.6,5.6-5.6,14.7,0,20.2l30.5,30.3
		l-30.5,30.3c-5.6,5.6-5.6,14.7,0,20.2v0c5.6,5.6,14.7,5.6,20.4,0l40.3-40c0.1-0.1,0.3-0.3,0.4-0.4c2.8-2.8,4.2-6.5,4.2-10.1
		C243,283.8,241.6,280.1,238.8,277.3z"/>
	<g>
		<path class="st2" d="M534.1,342.6c-0.8,0.1-1.7,0.2-2.7,0.3c-0.9,0.1-1.9,0.1-3.2,0.1c-1.2,0-2.6,0-4,0c-3.1,0-6-0.1-8.9-0.4
			l18.6-108.1c3.3-0.3,6.4-0.4,9.5-0.4c1.4,0,2.8,0,4,0.1c1.2,0,2.2,0.1,3.1,0.2c1.1,0.1,1.9,0.1,2.6,0.1L534.1,342.6z"/>
		<path class="st2" d="M573.3,327.9c0,1.9-0.1,3.8-0.4,5.7s-0.6,3.5-1,5c-0.4,1.7-0.9,3.4-1.4,4.9c-3.7,0-7.2-0.2-10.3-0.6
			c-3.1-0.4-5.8-1.2-7.9-2.4c-2.2-1.2-3.8-2.8-5-4.8c-1.2-2.1-1.8-4.8-1.8-8.1c0-0.9,0-1.7,0.1-2.6c0.1-0.9,0.2-1.8,0.4-2.9
			l11.2-64.1l18.6-6.6l-3.2,19.2H591c-0.1,0.8-0.2,1.6-0.3,2.4c-0.1,0.8-0.2,1.6-0.3,2.4c-0.1,0.8-0.2,1.7-0.4,2.5
			c-0.2,1.2-0.4,2.2-0.6,3.2c-0.2,1-0.5,1.9-0.6,2.7c-0.3,0.9-0.5,1.6-0.6,2.3h-18.4l-5.8,33.3c-0.6,3.3-0.2,5.5,1.2,6.8
			C566.4,327.3,569.2,327.9,573.3,327.9z"/>
	</g>
	<g>
		<path class="st3" d="M304,278.7c0.3-0.7,1.1-2,2.4-4c1.2-1.7,2.9-4.3,5.3-7.7c2.4-3.4,5.6-8,9.9-13.8l13.2-18.3
			c1.9-0.2,4-0.3,6.3-0.4c2.3,0,4.3-0.1,6-0.1s3.4,0,4.9,0.1c1.5,0,2.9,0.1,4,0.2c1.3,0.1,2.6,0.1,3.7,0.1L341,343.1
			c-3.2,0.3-6.2,0.4-9.1,0.4c-1.3,0-2.6,0-3.7,0s-2.2,0-3-0.1c-1.1-0.1-2-0.2-2.7-0.3l15.3-85.8h-0.6c-0.7,1.4-1.8,3.4-3.5,5.9
			c-1.3,2.2-3.2,5-5.6,8.5c-2.4,3.5-5.6,7.8-9.6,13.1l-19.3,25.5h-1.7l-10.2-25.1c-2.1-5.2-3.8-9.6-5-13.1c-1.2-3.5-2.1-6.4-2.8-8.6
			c-0.8-2.6-1.3-4.7-1.6-6.2h-0.6l-14.7,85.8c-0.9,0.1-1.8,0.2-2.9,0.3c-0.9,0.1-1.9,0.1-3.1,0.1c-1.2,0-2.5,0-3.8,0
			c-2.8,0-5.6-0.1-8.5-0.4l18.6-108.1c1.9-0.2,4-0.3,6.1-0.4c2.2,0,4.1-0.1,5.8-0.1s3.4,0,4.9,0.1c1.5,0,2.9,0.1,4.2,0.2
			c1.4,0.1,2.8,0.1,4,0.1l7.8,20.4c1.9,5.2,3.4,9.3,4.5,12.3c1.1,3,1.8,5.4,2.3,7c0.6,1.9,0.9,3.3,1,4H304z"/>
		<path class="st3" d="M351.4,317.6c0-5.9,0.6-11.6,1.9-17.3c1.2-5.7,3.3-10.7,6.3-15.1c2.9-4.4,6.8-8,11.7-10.7
			c4.9-2.7,10.9-4.1,18.1-4.1c5.8,0,10.5,0.9,14.1,2.6c3.6,1.7,6.5,4.1,8.4,7.2c2,3.1,3.1,6.8,3.5,11.1c0.3,4.3,0,9.1-0.9,14.3
			c-2.3,12.6-6.5,22.1-12.6,28.7c-6.1,6.5-14.6,9.8-25.4,9.8c-8.4,0-14.6-2.2-18.8-6.7C353.5,332.8,351.4,326.2,351.4,317.6z
			 M386.5,285.9c-3.7,0-6.8,1-9.1,3c-2.4,2-4.2,4.5-5.5,7.5c-1.3,3-2.3,6.3-2.7,9.8c-0.5,3.5-0.7,6.8-0.7,9.9c0,3.8,0.8,6.8,2.4,9
			c1.6,2.2,4.4,3.2,8.6,3.2c5.1,0,9-1.9,11.7-5.8c2.7-3.9,4.6-9.3,5.8-16.1c0.4-2.3,0.7-4.6,0.9-7c0.2-2.4,0-4.6-0.5-6.6
			c-0.5-2-1.6-3.7-3.2-5C392.2,286.6,389.8,285.9,386.5,285.9z"/>
		<path class="st3" d="M445.3,343.1c-0.8,0.1-1.6,0.2-2.6,0.3c-0.8,0.1-1.7,0.1-2.8,0.1c-1.1,0-2.3,0-3.5,0c-2.7,0-5.4-0.1-8.1-0.4
			l-14.4-69.3c2.3-1,4.5-1.7,6.7-2.2c2.2-0.5,4.1-0.8,5.8-1c2-0.3,3.9-0.4,5.8-0.4l5.6,30.1c1.2,7.2,1.9,12.8,2.2,16.7
			c0.2,2.3,0.3,4.3,0.3,5.9h0.6c0.6-1.6,1.3-3.6,2.3-5.9c0.8-1.9,1.8-4.3,3.1-7.1c1.3-2.8,2.9-6,4.8-9.6l15.7-30.2
			c2.4,0.2,4.6,0.4,6.7,0.7c2.1,0.3,3.9,0.7,5.5,1.2c1.8,0.5,3.5,1,5,1.6L445.3,343.1z"/>
		<path class="st3" d="M487.6,316.5c-0.1,0.2-0.1,0.5-0.1,0.9v2c0,3.4,1.2,5.7,3.7,7.1c2.4,1.4,6.1,2.1,11,2.1
			c3.1,0,5.9-0.2,8.4-0.6c2.5-0.4,4.7-0.8,6.6-1.3c2.2-0.6,4.2-1.2,6-2c1,3.8,1.5,7.2,1.7,10.3c0.1,1.7,0.1,3.3,0.1,4.8
			c-2,0.9-4.3,1.6-6.9,2.2c-2.2,0.6-4.9,1.1-8,1.5c-3.1,0.4-6.6,0.7-10.6,0.7c-10.2,0-17.5-2.2-22.1-6.5c-4.6-4.3-6.8-11.1-6.8-20.4
			c0-5.8,0.7-11.4,2.2-17.1c1.5-5.6,3.8-10.6,7-15c3.2-4.4,7.2-7.9,12.2-10.7c5-2.7,10.9-4.1,17.8-4.1c5.2,0,9.4,0.8,12.6,2.4
			c3.3,1.6,5.8,3.6,7.7,6c1.9,2.4,3.1,5,3.8,7.8c0.7,2.8,1,5.5,1,8.1c0,4.9-1.5,8.8-4.5,11.7c-3,2.9-6.8,5.1-11.4,6.6
			c-4.6,1.5-9.8,2.4-15.4,2.9C498.1,316.3,492.8,316.5,487.6,316.5z M507.3,285.6c-2.5,0-4.7,0.5-6.6,1.5c-1.9,1-3.6,2.3-5,4
			c-1.4,1.6-2.6,3.5-3.5,5.5c-0.9,2.1-1.6,4.2-1.9,6.3c3.8,0,7.4-0.2,10.7-0.5c3.3-0.3,6.2-0.9,8.6-1.6c2.4-0.7,4.4-1.7,5.8-2.9
			c1.4-1.2,2.2-2.7,2.2-4.4c0-2-0.7-3.8-2.2-5.5C513.8,286.4,511.2,285.6,507.3,285.6z"/>
	</g>
	<path class="st4" d="M188.6,318c5,0,9,4,9,9c0,4.9-4,8.9-9,8.9c-5,0-9-4-9-9C179.6,322,183.6,318,188.6,318"/>
	<path class="st4" d="M227.8,278.7c5,0,9,4,9,9s-4,8.9-9,8.9c-5,0-9-4-9-9C218.8,282.7,222.8,278.7,227.8,278.7"/>
	<path class="st4" d="M197.9,247.7c0,4.9-4,9-9,9c-5,0-9-4-9-8.9c0-4.9,4-9,9-9C193.8,238.7,197.8,242.7,197.9,247.7"/>
	<path class="st4" d="M237,286.9c0,4.9-4,9-9,9c-5,0-9-4-9-8.9c0-4.9,4-9,9-9C233,278,237,282,237,286.9"/>
	<g>
		<path class="st2" d="M604.1,324.5l-4.2,19.4h-19.8l4-19.4H604.1z M600,316.9h-8.8l3.2-38.6l5.2-24.4h19l-5.3,24.4L600,316.9z"/>
	</g>
	<g>
		<path class="st5" d="M248.5,359.2c-1,0-1.8,0.2-2.3,0.4c-0.5,0.3-0.9,0.8-1,1.6l-1.9,11.2c-0.1,0-0.3,0-0.5,0.1
			c-0.1,0-0.3,0-0.4,0c-0.2,0-0.3,0-0.5,0c-0.2,0-0.4,0-0.6,0c-0.2,0-0.3,0-0.4,0c-0.1,0-0.3,0-0.4-0.1l1.8-10.5
			c0.2-1.1,0.5-2,0.8-2.7c0.4-0.7,0.8-1.2,1.4-1.5c0.5-0.4,1.2-0.6,1.9-0.7c0.7-0.1,1.6-0.2,2.6-0.2h8c0.9,0,1.7,0.1,2.4,0.2
			s1.2,0.4,1.7,0.7c0.4,0.4,0.7,0.9,0.9,1.5c0.2,0.7,0.1,1.6,0,2.7l-1.8,10.6c-0.1,0-0.3,0-0.5,0.1c-0.1,0-0.3,0-0.5,0s-0.3,0-0.5,0
			c-0.2,0-0.4,0-0.6,0s-0.3,0-0.4,0c-0.1,0-0.3,0-0.4-0.1l1.9-11.2c0.1-0.5,0.1-0.8,0-1.1c-0.1-0.3-0.2-0.5-0.4-0.6
			c-0.2-0.1-0.5-0.2-0.9-0.3c-0.4,0-0.8-0.1-1.3-0.1h-2.7l-2.3,13.2c-0.1,0-0.3,0-0.5,0.1c-0.1,0-0.3,0-0.5,0c-0.2,0-0.3,0-0.5,0
			c-0.2,0-0.4,0-0.6,0c-0.2,0-0.3,0-0.4,0c-0.1,0-0.3,0-0.4-0.1l2.3-13.2H248.5z"/>
		<path class="st5" d="M264.6,366.9c0-1.2,0.1-2.4,0.4-3.7c0.2-1.2,0.7-2.3,1.3-3.3s1.4-1.8,2.4-2.4c1-0.6,2.3-0.9,3.8-0.9
			c1.8,0,3.1,0.5,4,1.4c0.9,0.9,1.3,2.2,1.3,3.9c0,1.5-0.2,3-0.5,4.3c-0.3,1.3-0.9,2.4-1.5,3.4c-0.7,1-1.5,1.7-2.5,2.2
			c-1,0.5-2.2,0.8-3.5,0.8c-1.7,0-3-0.5-3.8-1.5C265,370.2,264.6,368.8,264.6,366.9z M272,359c-0.9,0-1.7,0.2-2.3,0.7
			c-0.6,0.5-1.1,1.1-1.5,1.9c-0.4,0.8-0.6,1.7-0.8,2.6c-0.1,1-0.2,1.9-0.2,2.9c0,0.9,0.2,1.7,0.6,2.2s1.1,0.8,2.2,0.8
			c0.8,0,1.5-0.2,2.1-0.6c0.6-0.4,1.1-1,1.5-1.7c0.4-0.7,0.7-1.6,0.9-2.6s0.3-2.1,0.3-3.2c0-0.9-0.2-1.6-0.6-2.2
			C273.9,359.3,273.1,359,272,359z"/>
		<path class="st5" d="M286.4,372.4c-0.2,0-0.3,0-0.5,0.1c-0.2,0-0.3,0-0.5,0c-0.2,0-0.4,0-0.6,0c-0.2,0-0.4,0-0.6,0
			c-0.2,0-0.3,0-0.4,0c-0.1,0-0.3,0-0.4-0.1l-2.8-14.9c0.3-0.2,0.6-0.3,0.9-0.4c0.3-0.1,0.6-0.2,0.9-0.2c0.3-0.1,0.6-0.1,0.9-0.1
			l1.1,6.4c0.2,1.2,0.4,2.2,0.5,3c0.1,0.8,0.2,1.4,0.2,1.9c0.1,0.6,0.1,1,0.1,1.3h0.2c0.1-0.4,0.3-0.8,0.6-1.4
			c0.2-0.5,0.5-1.1,0.9-1.9c0.4-0.8,0.9-1.8,1.5-3l3.3-6.4c0.4,0,0.7,0.1,1.1,0.1c0.3,0.1,0.6,0.2,0.8,0.2c0.2,0.1,0.5,0.2,0.7,0.3
			L286.4,372.4z"/>
		<path class="st5" d="M297.2,372.4c-0.1,0-0.3,0-0.4,0.1c-0.1,0-0.3,0-0.5,0c-0.2,0-0.4,0-0.6,0c-0.2,0-0.4,0-0.5,0
			c-0.2,0-0.3,0-0.4,0c-0.1,0-0.2,0-0.4-0.1l2.6-15.5c0.1,0,0.3,0,0.4,0c0.1,0,0.3,0,0.4,0s0.4,0,0.6,0s0.4,0,0.6,0
			c0.2,0,0.3,0,0.4,0c0.1,0,0.3,0,0.4,0L297.2,372.4z M300.9,351.4c0,0.4-0.1,0.7-0.1,1c-0.1,0.3-0.1,0.6-0.2,0.9
			c-0.1,0.3-0.2,0.6-0.2,0.8c-0.1,0-0.3,0-0.5,0.1c-0.1,0-0.3,0-0.5,0c-0.2,0-0.4,0-0.6,0c-0.2,0-0.4,0-0.6,0c-0.2,0-0.3,0-0.4,0
			c-0.1,0-0.3,0-0.4-0.1c0-0.4,0.1-0.8,0.1-1.1c0.1-0.3,0.1-0.6,0.2-0.8c0.1-0.3,0.2-0.5,0.2-0.7c0.1,0,0.3,0,0.4-0.1
			c0.1,0,0.3,0,0.4,0c0.2,0,0.4,0,0.6,0c0.2,0,0.4,0,0.6,0c0.2,0,0.4,0,0.5,0C300.6,351.3,300.8,351.3,300.9,351.4z"/>
		<path class="st5" d="M303.7,361.8c0.2-1.1,0.5-2,0.8-2.7c0.4-0.7,0.8-1.2,1.4-1.6c0.5-0.4,1.2-0.6,1.9-0.8
			c0.7-0.1,1.6-0.2,2.6-0.2c0.9,0,1.7,0.1,2.4,0.2c0.7,0.1,1.2,0.4,1.7,0.8c0.4,0.4,0.7,0.9,0.9,1.6c0.2,0.7,0.1,1.6,0,2.7
			l-1.8,10.6c-0.1,0-0.3,0-0.5,0.1c-0.1,0-0.3,0-0.5,0c-0.2,0-0.3,0-0.5,0c-0.2,0-0.4,0-0.6,0c-0.2,0-0.3,0-0.4,0
			c-0.1,0-0.3,0-0.4-0.1l1.9-11.2c0.1-0.9,0-1.5-0.4-1.8c-0.4-0.3-1.1-0.4-2.1-0.4c-2,0-3.1,0.7-3.3,2.2l-1.9,11.2
			c-0.1,0-0.3,0-0.5,0.1c-0.1,0-0.3,0-0.4,0c-0.2,0-0.3,0-0.5,0c-0.2,0-0.4,0-0.6,0c-0.2,0-0.3,0-0.4,0c-0.1,0-0.3,0-0.4-0.1
			L303.7,361.8z"/>
		<path class="st5" d="M326.4,372.1c-0.2,0.1-0.5,0.1-0.9,0.2c-0.3,0-0.6,0.1-1,0.1c-0.4,0-0.8,0-1.2,0c-1.7,0-3.1-0.4-4-1.2
			s-1.3-2.2-1.3-4.1c0-1.2,0.2-2.4,0.5-3.6s0.8-2.4,1.5-3.4c0.7-1,1.6-1.8,2.6-2.5c1.1-0.6,2.3-1,3.8-1c0.8,0,1.5,0,2.2,0
			c0.7,0,1.2,0.1,1.7,0.1c0.6,0.1,1.1,0.1,1.6,0.2l-2.7,15.1c-0.2,1.3-0.5,2.5-0.9,3.4c-0.4,0.9-0.8,1.7-1.4,2.3
			c-0.6,0.6-1.3,1-2.1,1.2c-0.8,0.2-1.8,0.4-2.9,0.4c-1,0-1.8-0.1-2.4-0.3c-0.6-0.2-1.1-0.4-1.5-0.7c-0.5-0.3-0.8-0.6-1.1-1
			c0.2-0.3,0.4-0.5,0.6-0.7c0.2-0.2,0.4-0.4,0.7-0.6c0.2-0.2,0.5-0.4,0.9-0.6c0.2,0.3,0.4,0.5,0.7,0.8c0.3,0.2,0.6,0.4,1,0.5
			s0.9,0.2,1.5,0.2c0.7,0,1.2-0.1,1.7-0.3c0.4-0.2,0.8-0.5,1.1-0.8c0.3-0.4,0.6-0.9,0.8-1.5C326,373.7,326.2,373,326.4,372.1z
			 M323.7,370c0.4,0,0.8,0,1.1,0c0.4,0,0.7-0.1,1-0.1c0.4,0,0.7-0.1,1-0.2l1.9-10.5c-0.2,0-0.5,0-0.8-0.1c-0.2,0-0.5,0-0.9-0.1
			c-0.3,0-0.7,0-1.1,0c-1,0-1.8,0.3-2.5,0.8c-0.7,0.6-1.2,1.3-1.6,2.1c-0.4,0.8-0.7,1.7-0.9,2.7c-0.2,1-0.2,1.8-0.2,2.7
			c0,0.9,0.2,1.6,0.6,2.1C321.8,369.8,322.6,370,323.7,370z"/>
		<path class="st5" d="M350.5,359.3c-0.2,0-0.4-0.1-0.6-0.1c-0.2,0-0.4-0.1-0.6-0.1c-0.2,0-0.5,0-0.7,0c-1.8,0-2.8,0.7-3,2.2
			l-1.9,11.2c-0.1,0-0.3,0-0.5,0.1c-0.1,0-0.3,0-0.4,0c-0.2,0-0.3,0-0.5,0c-0.2,0-0.4,0-0.6,0c-0.2,0-0.3,0-0.4,0
			c-0.1,0-0.3,0-0.4-0.1l1.8-10.6c0.2-1.1,0.5-2,0.8-2.7c0.4-0.7,0.8-1.2,1.3-1.6s1.1-0.6,1.8-0.8c0.7-0.1,1.5-0.2,2.4-0.2
			c0.3,0,0.6,0,0.8,0c0.2,0,0.4,0.1,0.6,0.1c0.2,0,0.3,0.1,0.5,0.1c0,0.4-0.1,0.7-0.1,1c-0.1,0.3-0.1,0.6-0.1,0.8
			C350.6,358.9,350.5,359.1,350.5,359.3z"/>
		<path class="st5" d="M351.3,366.9c0-1.2,0.1-2.4,0.4-3.7c0.2-1.2,0.7-2.3,1.3-3.3s1.4-1.8,2.4-2.4c1-0.6,2.3-0.9,3.8-0.9
			c1.8,0,3.1,0.5,4,1.4c0.9,0.9,1.3,2.2,1.3,3.9c0,1.5-0.2,3-0.5,4.3c-0.3,1.3-0.9,2.4-1.5,3.4c-0.7,1-1.5,1.7-2.5,2.2
			c-1,0.5-2.2,0.8-3.5,0.8c-1.7,0-3-0.5-3.8-1.5C351.7,370.2,351.3,368.8,351.3,366.9z M358.7,359c-0.9,0-1.7,0.2-2.3,0.7
			c-0.6,0.5-1.1,1.1-1.5,1.9c-0.4,0.8-0.6,1.7-0.8,2.6c-0.1,1-0.2,1.9-0.2,2.9c0,0.9,0.2,1.7,0.6,2.2s1.1,0.8,2.2,0.8
			c0.8,0,1.5-0.2,2.1-0.6c0.6-0.4,1.1-1,1.5-1.7c0.4-0.7,0.7-1.6,0.9-2.6s0.3-2.1,0.3-3.2c0-0.9-0.2-1.6-0.6-2.2
			C360.6,359.3,359.8,359,358.7,359z"/>
		<path class="st5" d="M370.2,349.1c0.1,0,0.3,0,0.4-0.1c0.1,0,0.3,0,0.4,0c0.2,0,0.3,0,0.5,0c0.2,0,0.4,0,0.6,0c0.2,0,0.3,0,0.5,0
			c0.1,0,0.3,0,0.4,0.1l-1.4,8c0.3,0,0.6-0.1,1-0.2c0.3,0,0.6-0.1,1-0.1c0.4,0,0.8-0.1,1.1-0.1c1.7,0,3.1,0.4,4,1.1
			c1,0.8,1.4,2.1,1.4,4c0,1.3-0.2,2.6-0.5,3.8c-0.3,1.3-0.9,2.4-1.6,3.5c-0.7,1-1.6,1.9-2.8,2.5c-1.1,0.7-2.4,1-4,1
			c-0.8,0-1.5-0.1-2.1-0.2c-0.6-0.1-1.1-0.4-1.5-0.7c-0.4-0.4-0.7-0.9-0.8-1.6c-0.1-0.7-0.1-1.6,0.1-2.7L370.2,349.1z M369.7,368
			c-0.2,0.9-0.1,1.5,0.3,1.8s1,0.4,1.7,0.4c1.1,0,2-0.3,2.7-0.8c0.7-0.6,1.3-1.3,1.7-2.1c0.4-0.8,0.7-1.8,0.9-2.8
			c0.2-1,0.3-2,0.3-2.9s-0.2-1.6-0.7-2s-1.2-0.6-2.3-0.6c-0.4,0-0.8,0-1.1,0c-0.4,0-0.7,0.1-1,0.1c-0.4,0-0.7,0.1-1,0.1L369.7,368z"
			/>
		<path class="st5" d="M382.5,366.9c0-1.2,0.1-2.4,0.4-3.7c0.2-1.2,0.7-2.3,1.3-3.3s1.4-1.8,2.4-2.4c1-0.6,2.3-0.9,3.8-0.9
			c1.8,0,3.1,0.5,4,1.4c0.9,0.9,1.3,2.2,1.3,3.9c0,1.5-0.2,3-0.5,4.3c-0.3,1.3-0.9,2.4-1.5,3.4c-0.7,1-1.5,1.7-2.5,2.2
			c-1,0.5-2.2,0.8-3.5,0.8c-1.7,0-3-0.5-3.8-1.5C382.9,370.2,382.5,368.8,382.5,366.9z M389.9,359c-0.9,0-1.7,0.2-2.3,0.7
			c-0.6,0.5-1.1,1.1-1.5,1.9c-0.4,0.8-0.6,1.7-0.8,2.6c-0.1,1-0.2,1.9-0.2,2.9c0,0.9,0.2,1.7,0.6,2.2s1.1,0.8,2.2,0.8
			c0.8,0,1.5-0.2,2.1-0.6c0.6-0.4,1.1-1,1.5-1.7c0.4-0.7,0.7-1.6,0.9-2.6s0.3-2.1,0.3-3.2c0-0.9-0.2-1.6-0.6-2.2
			C391.8,359.3,391,359,389.9,359z"/>
		<path class="st5" d="M400.7,353.5l2.9-0.9l-0.7,4.3h4.1c0,0.4,0,0.7-0.1,1c-0.1,0.3-0.1,0.6-0.1,0.8c-0.1,0.2-0.2,0.5-0.2,0.7
			h-4.1l-1.5,8.6c-0.1,0.5-0.1,0.9,0,1.2c0.1,0.3,0.2,0.5,0.5,0.7c0.2,0.2,0.6,0.3,0.9,0.3c0.4,0,0.9,0.1,1.4,0.1h0.4
			c0,0.4,0,0.7-0.1,1c-0.1,0.3-0.1,0.6-0.1,0.8c-0.1,0.3-0.2,0.5-0.2,0.7h-0.4c-1,0-1.8-0.1-2.5-0.2c-0.7-0.1-1.3-0.4-1.8-0.8
			c-0.4-0.4-0.7-0.9-0.9-1.6s-0.1-1.6,0.1-2.7L400.7,353.5z"/>
		<path class="st5" d="M413.9,356.7c0.7,0,1.2,0.1,1.7,0.2c0.5,0.1,0.9,0.3,1.2,0.4c0.4,0.2,0.7,0.4,0.9,0.6
			c-0.1,0.2-0.3,0.4-0.5,0.6c-0.2,0.2-0.4,0.4-0.6,0.6c-0.2,0.2-0.5,0.4-0.8,0.6c-0.2-0.1-0.4-0.2-0.6-0.3c-0.2-0.1-0.5-0.2-0.7-0.2
			c-0.3-0.1-0.6-0.1-1-0.1c-0.2,0-0.5,0.1-0.8,0.2c-0.3,0.1-0.5,0.3-0.7,0.5c-0.2,0.2-0.4,0.5-0.5,0.9c-0.1,0.4-0.2,0.8-0.2,1.2
			c0,0.3,0.1,0.6,0.4,0.9c0.3,0.3,0.7,0.5,1.5,0.6c0.5,0.1,1,0.2,1.4,0.4s0.8,0.4,1.2,0.7c0.3,0.3,0.6,0.7,0.8,1.1
			c0.2,0.4,0.3,0.9,0.3,1.5c0,1-0.2,1.8-0.5,2.5c-0.4,0.7-0.8,1.3-1.4,1.7c-0.6,0.5-1.2,0.8-2,1c-0.8,0.2-1.5,0.3-2.3,0.3
			c-0.7,0-1.3-0.1-1.8-0.2c-0.5-0.1-0.9-0.3-1.2-0.4c-0.4-0.2-0.6-0.4-0.8-0.7c0.1-0.2,0.3-0.5,0.5-0.7c0.2-0.2,0.4-0.4,0.6-0.6
			c0.2-0.2,0.5-0.4,0.7-0.6c0.2,0.2,0.5,0.3,0.7,0.4c0.2,0.1,0.5,0.2,0.8,0.3c0.3,0.1,0.6,0.1,0.9,0.1c0.3,0,0.6,0,1-0.1
			c0.4-0.1,0.7-0.2,1-0.4c0.3-0.2,0.6-0.5,0.8-0.9c0.2-0.4,0.3-0.8,0.3-1.4c0-1.1-0.8-1.7-2.5-2c-0.9-0.1-1.6-0.5-2.2-1
			c-0.6-0.6-0.9-1.3-0.9-2.2c0-0.9,0.1-1.7,0.4-2.4s0.6-1.3,1.1-1.7c0.5-0.5,1.1-0.8,1.7-1C412.4,356.8,413.1,356.7,413.9,356.7z"/>
		<path class="st5" d="M429.8,372.4c-0.1,0-0.3,0-0.4,0.1c-0.1,0-0.3,0-0.5,0c-0.2,0-0.4,0-0.6,0c-0.2,0-0.4,0-0.5,0
			c-0.2,0-0.3,0-0.4,0c-0.1,0-0.2,0-0.4-0.1l2.6-15.5c0.1,0,0.3,0,0.4,0c0.1,0,0.3,0,0.4,0c0.2,0,0.4,0,0.6,0c0.2,0,0.4,0,0.6,0
			c0.2,0,0.3,0,0.4,0c0.1,0,0.3,0,0.4,0L429.8,372.4z M433.5,351.4c0,0.4-0.1,0.7-0.1,1c-0.1,0.3-0.1,0.6-0.2,0.9
			c-0.1,0.3-0.2,0.6-0.2,0.8c-0.1,0-0.3,0-0.5,0.1c-0.1,0-0.3,0-0.5,0c-0.2,0-0.4,0-0.6,0c-0.2,0-0.4,0-0.6,0c-0.2,0-0.3,0-0.4,0
			c-0.1,0-0.3,0-0.4-0.1c0-0.4,0.1-0.8,0.1-1.1c0.1-0.3,0.1-0.6,0.2-0.8c0.1-0.3,0.2-0.5,0.2-0.7c0.1,0,0.3,0,0.4-0.1
			c0.1,0,0.3,0,0.4,0c0.2,0,0.4,0,0.6,0c0.2,0,0.4,0,0.6,0c0.2,0,0.4,0,0.5,0C433.2,351.3,433.4,351.3,433.5,351.4z"/>
		<path class="st5" d="M436.2,361.8c0.2-1.1,0.5-2,0.8-2.7c0.4-0.7,0.8-1.2,1.4-1.6s1.2-0.6,1.9-0.8c0.7-0.1,1.6-0.2,2.6-0.2
			c0.9,0,1.7,0.1,2.4,0.2s1.2,0.4,1.7,0.8s0.7,0.9,0.9,1.6s0.1,1.6,0,2.7l-1.8,10.6c-0.1,0-0.3,0-0.5,0.1c-0.1,0-0.3,0-0.5,0
			s-0.3,0-0.5,0c-0.2,0-0.4,0-0.6,0s-0.3,0-0.4,0c-0.1,0-0.3,0-0.4-0.1l1.9-11.2c0.1-0.9,0-1.5-0.4-1.8s-1.1-0.4-2.1-0.4
			c-2,0-3.1,0.7-3.3,2.2l-1.9,11.2c-0.1,0-0.3,0-0.5,0.1c-0.1,0-0.3,0-0.4,0s-0.3,0-0.5,0c-0.2,0-0.4,0-0.6,0c-0.2,0-0.3,0-0.4,0
			c-0.1,0-0.3,0-0.4-0.1L436.2,361.8z"/>
		<path class="st5" d="M453.4,353.5l2.9-0.9l-0.7,4.3h4.1c0,0.4,0,0.7-0.1,1c-0.1,0.3-0.1,0.6-0.1,0.8c-0.1,0.2-0.2,0.5-0.2,0.7
			h-4.1l-1.5,8.6c-0.1,0.5-0.1,0.9,0,1.2s0.2,0.5,0.5,0.7c0.2,0.2,0.6,0.3,0.9,0.3c0.4,0,0.9,0.1,1.4,0.1h0.4c0,0.4,0,0.7-0.1,1
			c-0.1,0.3-0.1,0.6-0.1,0.8c-0.1,0.3-0.2,0.5-0.2,0.7h-0.4c-1,0-1.8-0.1-2.5-0.2c-0.7-0.1-1.3-0.4-1.8-0.8s-0.7-0.9-0.9-1.6
			s-0.1-1.6,0.1-2.7L453.4,353.5z"/>
		<path class="st5" d="M460.1,366.9c0-1.2,0.1-2.4,0.4-3.7s0.7-2.3,1.3-3.3c0.6-1,1.4-1.8,2.4-2.4c1-0.6,2.3-0.9,3.8-0.9
			c1.8,0,3.1,0.5,4,1.4c0.9,0.9,1.3,2.2,1.3,3.9c0,1.5-0.2,3-0.5,4.3s-0.9,2.4-1.5,3.4c-0.7,1-1.5,1.7-2.5,2.2
			c-1,0.5-2.2,0.8-3.5,0.8c-1.7,0-3-0.5-3.8-1.5C460.5,370.2,460.1,368.8,460.1,366.9z M467.5,359c-0.9,0-1.7,0.2-2.3,0.7
			c-0.6,0.5-1.1,1.1-1.5,1.9c-0.4,0.8-0.6,1.7-0.8,2.6c-0.1,1-0.2,1.9-0.2,2.9c0,0.9,0.2,1.7,0.6,2.2s1.1,0.8,2.2,0.8
			c0.8,0,1.5-0.2,2.1-0.6c0.6-0.4,1.1-1,1.5-1.7c0.4-0.7,0.7-1.6,0.9-2.6s0.3-2.1,0.3-3.2c0-0.9-0.2-1.6-0.6-2.2
			S468.6,359,467.5,359z"/>
		<path class="st5" d="M485.6,353.5l2.9-0.9l-0.7,4.3h4.1c0,0.4,0,0.7-0.1,1c-0.1,0.3-0.1,0.6-0.1,0.8c-0.1,0.2-0.2,0.5-0.2,0.7
			h-4.1l-1.5,8.6c-0.1,0.5-0.1,0.9,0,1.2s0.2,0.5,0.5,0.7c0.2,0.2,0.6,0.3,0.9,0.3c0.4,0,0.9,0.1,1.4,0.1h0.4c0,0.4,0,0.7-0.1,1
			c-0.1,0.3-0.1,0.6-0.1,0.8c-0.1,0.3-0.2,0.5-0.2,0.7h-0.4c-1,0-1.8-0.1-2.5-0.2c-0.7-0.1-1.3-0.4-1.8-0.8s-0.7-0.9-0.9-1.6
			s-0.1-1.6,0.1-2.7L485.6,353.5z"/>
		<path class="st5" d="M500.2,359c-0.3,0-0.6,0-1,0.1c-0.4,0.1-0.7,0.1-1.1,0.2c-0.4,0.1-0.8,0.2-1.2,0.2l-2.2,12.9
			c-0.1,0-0.3,0-0.4,0.1c-0.1,0-0.3,0-0.4,0c-0.2,0-0.3,0-0.5,0c-0.2,0-0.4,0-0.6,0c-0.2,0-0.3,0-0.4,0c-0.1,0-0.3,0-0.4-0.1l4-23.3
			c0.1,0,0.3,0,0.4-0.1c0.1,0,0.3,0,0.4,0c0.2,0,0.3,0,0.5,0c0.2,0,0.4,0,0.6,0c0.2,0,0.3,0,0.5,0c0.1,0,0.3,0,0.4,0.1l-1.4,7.9
			c0.4-0.1,0.8-0.1,1.2-0.2c0.4-0.1,0.7-0.1,1.1-0.2c0.4-0.1,0.7-0.1,1-0.1c0.9,0,1.7,0.1,2.4,0.2c0.7,0.1,1.2,0.4,1.7,0.8
			c0.4,0.4,0.7,0.9,0.9,1.6c0.1,0.7,0.1,1.6-0.1,2.7l-1.8,10.6c-0.1,0-0.3,0-0.5,0.1c-0.1,0-0.3,0-0.5,0c-0.2,0-0.3,0-0.5,0
			c-0.2,0-0.4,0-0.6,0c-0.2,0-0.3,0-0.4,0c-0.1,0-0.3,0-0.4-0.1l1.9-11.2c0.1-0.5,0.1-0.9,0-1.2c-0.1-0.3-0.2-0.5-0.4-0.7
			c-0.2-0.2-0.5-0.3-0.9-0.3S500.7,359,500.2,359z"/>
		<path class="st5" d="M511.1,366c0,0,0,0.1,0,0.2v0.4c0,1.1,0.3,2,0.9,2.6c0.6,0.6,1.5,0.9,2.8,0.9c0.7,0,1.3-0.1,1.9-0.2
			c0.5-0.1,1-0.2,1.4-0.4c0.4-0.1,0.8-0.3,1.1-0.5c0.1,0.3,0.2,0.6,0.2,0.9c0,0.3,0,0.5,0,0.8c0,0.3,0,0.5-0.1,0.8
			c-0.4,0.2-0.8,0.4-1.3,0.6c-0.4,0.1-0.9,0.3-1.6,0.4c-0.6,0.1-1.3,0.2-2.1,0.2c-2,0-3.5-0.5-4.5-1.5c-1-1-1.5-2.4-1.5-4.3
			c0-1.2,0.2-2.4,0.5-3.6c0.3-1.2,0.8-2.3,1.5-3.2c0.7-1,1.5-1.7,2.6-2.3c1-0.6,2.3-0.9,3.7-0.9c1,0,1.8,0.1,2.5,0.4
			c0.7,0.3,1.2,0.7,1.6,1.1s0.7,0.9,0.8,1.5c0.2,0.5,0.2,1.1,0.2,1.6c0,0.8-0.2,1.5-0.5,2c-0.4,0.5-0.8,1-1.4,1.3s-1.3,0.6-2,0.8
			c-0.7,0.2-1.5,0.3-2.3,0.4c-0.8,0.1-1.6,0.1-2.3,0.2C512.4,366,511.7,366,511.1,366z M516.1,359c-0.6,0-1.2,0.1-1.7,0.4
			s-1,0.6-1.3,1c-0.4,0.4-0.7,0.9-1,1.5c-0.3,0.6-0.4,1.2-0.5,1.8c0.6,0,1.4,0,2.2,0c0.9,0,1.7-0.1,2.4-0.3c0.8-0.2,1.4-0.4,2-0.8
			c0.5-0.4,0.8-0.9,0.8-1.5c0-0.5-0.2-1-0.6-1.4C518,359.2,517.2,359,516.1,359z"/>
		<path class="st5" d="M540.1,351.3c-0.3,0-0.7,0-1.1,0.1c-0.4,0.1-0.7,0.2-1,0.3c-0.3,0.2-0.6,0.4-0.9,0.7s-0.4,0.7-0.5,1.1
			l-0.6,3.3h4.1c0,0.4-0.1,0.7-0.1,1c0,0.3-0.1,0.5-0.1,0.8c-0.1,0.3-0.1,0.5-0.2,0.7h-4.1l-2.3,13.1c-0.1,0-0.3,0-0.4,0.1
			s-0.3,0-0.5,0s-0.4,0-0.6,0c-0.2,0-0.3,0-0.5,0c-0.1,0-0.3,0-0.4,0c-0.1,0-0.3,0-0.4-0.1l3.2-18.8c0.2-1,0.5-1.7,0.9-2.4
			c0.4-0.6,1-1.1,1.6-1.5c0.6-0.4,1.3-0.6,2-0.7c0.7-0.1,1.5-0.2,2.2-0.2c0.2,0,0.3,0,0.4,0c0.1,0,0.3,0,0.4,0h0.4
			c0,0.3-0.1,0.6-0.1,0.9c-0.1,0.3-0.1,0.6-0.1,0.8c-0.1,0.3-0.1,0.5-0.2,0.7h-0.4c-0.1,0-0.2,0-0.4,0
			C540.4,351.3,540.3,351.3,540.1,351.3z"/>
		<path class="st5" d="M552.9,367.4c-0.2,1.1-0.5,2-0.8,2.7c-0.4,0.7-0.8,1.2-1.4,1.6s-1.2,0.6-1.9,0.8s-1.6,0.2-2.5,0.2
			c-0.9,0-1.7-0.1-2.4-0.2c-0.7-0.1-1.2-0.4-1.7-0.8s-0.7-0.9-0.9-1.6c-0.2-0.7-0.1-1.6,0-2.7l1.8-10.6c0.1,0,0.3,0,0.5-0.1
			c0.1,0,0.3,0,0.5,0c0.2,0,0.3,0,0.5,0c0.2,0,0.4,0,0.6,0c0.2,0,0.3,0,0.4,0c0.1,0,0.3,0,0.4,0.1l-1.9,11.1c-0.2,0.9,0,1.5,0.4,1.8
			c0.4,0.3,1.1,0.4,2.1,0.4c1,0,1.8-0.1,2.3-0.4c0.5-0.3,0.9-0.9,1-1.8l1.9-11.1c0.1,0,0.3,0,0.5-0.1c0.1,0,0.3,0,0.4,0s0.3,0,0.5,0
			c0.2,0,0.4,0,0.6,0s0.3,0,0.4,0c0.1,0,0.3,0,0.4,0.1L552.9,367.4z"/>
		<path class="st5" d="M559.5,353.5l2.9-0.9l-0.7,4.3h4.1c0,0.4,0,0.7-0.1,1c-0.1,0.3-0.1,0.6-0.1,0.8c-0.1,0.2-0.2,0.5-0.2,0.7
			h-4.1l-1.5,8.6c-0.1,0.5-0.1,0.9,0,1.2c0.1,0.3,0.2,0.5,0.5,0.7c0.2,0.2,0.6,0.3,0.9,0.3s0.9,0.1,1.4,0.1h0.4c0,0.4,0,0.7-0.1,1
			s-0.1,0.6-0.1,0.8c-0.1,0.3-0.2,0.5-0.2,0.7h-0.4c-1,0-1.8-0.1-2.5-0.2c-0.7-0.1-1.3-0.4-1.8-0.8c-0.4-0.4-0.7-0.9-0.9-1.6
			s-0.1-1.6,0.1-2.7L559.5,353.5z"/>
		<path class="st5" d="M578.2,367.4c-0.2,1.1-0.5,2-0.8,2.7s-0.8,1.2-1.4,1.6c-0.5,0.4-1.2,0.6-1.9,0.8s-1.6,0.2-2.5,0.2
			c-0.9,0-1.7-0.1-2.4-0.2c-0.7-0.1-1.2-0.4-1.7-0.8c-0.4-0.4-0.7-0.9-0.9-1.6c-0.2-0.7-0.1-1.6,0-2.7l1.8-10.6c0.1,0,0.3,0,0.5-0.1
			c0.1,0,0.3,0,0.5,0c0.2,0,0.3,0,0.5,0c0.2,0,0.4,0,0.6,0s0.3,0,0.4,0c0.1,0,0.3,0,0.4,0.1l-1.9,11.1c-0.2,0.9,0,1.5,0.4,1.8
			c0.4,0.3,1.1,0.4,2.1,0.4c1,0,1.8-0.1,2.3-0.4c0.5-0.3,0.9-0.9,1-1.8l1.9-11.1c0.1,0,0.3,0,0.5-0.1c0.1,0,0.3,0,0.4,0
			c0.2,0,0.3,0,0.5,0c0.2,0,0.4,0,0.6,0c0.2,0,0.3,0,0.4,0c0.1,0,0.3,0,0.4,0.1L578.2,367.4z"/>
		<path class="st5" d="M591.2,359.3c-0.2,0-0.4-0.1-0.6-0.1c-0.2,0-0.4-0.1-0.6-0.1s-0.5,0-0.7,0c-1.8,0-2.8,0.7-3,2.2l-1.9,11.2
			c-0.1,0-0.3,0-0.5,0.1c-0.1,0-0.3,0-0.5,0c-0.2,0-0.3,0-0.5,0c-0.2,0-0.4,0-0.6,0s-0.3,0-0.4,0c-0.1,0-0.3,0-0.4-0.1l1.8-10.6
			c0.2-1.1,0.5-2,0.8-2.7s0.8-1.2,1.3-1.6c0.5-0.4,1.1-0.6,1.8-0.8s1.5-0.2,2.4-0.2c0.3,0,0.6,0,0.8,0c0.2,0,0.4,0.1,0.6,0.1
			c0.2,0,0.3,0.1,0.5,0.1c0,0.4-0.1,0.7-0.1,1c-0.1,0.3-0.1,0.6-0.1,0.8C591.3,358.9,591.3,359.1,591.2,359.3z"/>
		<path class="st5" d="M594.8,366c0,0,0,0.1,0,0.2v0.4c0,1.1,0.3,2,0.9,2.6c0.6,0.6,1.5,0.9,2.8,0.9c0.7,0,1.3-0.1,1.9-0.2
			c0.5-0.1,1-0.2,1.4-0.4c0.4-0.1,0.8-0.3,1.1-0.5c0.1,0.3,0.2,0.6,0.2,0.9c0,0.3,0,0.5,0,0.8c0,0.3,0,0.5-0.1,0.8
			c-0.4,0.2-0.8,0.4-1.3,0.6c-0.4,0.1-0.9,0.3-1.5,0.4c-0.6,0.1-1.3,0.2-2.1,0.2c-2,0-3.5-0.5-4.5-1.5c-1-1-1.5-2.4-1.5-4.3
			c0-1.2,0.2-2.4,0.5-3.6c0.3-1.2,0.8-2.3,1.5-3.2s1.5-1.7,2.6-2.3c1-0.6,2.3-0.9,3.7-0.9c1,0,1.8,0.1,2.5,0.4
			c0.7,0.3,1.2,0.7,1.6,1.1s0.7,0.9,0.8,1.5s0.2,1.1,0.2,1.6c0,0.8-0.2,1.5-0.5,2c-0.4,0.5-0.8,1-1.4,1.3c-0.6,0.4-1.3,0.6-2,0.8
			c-0.7,0.2-1.5,0.3-2.3,0.4c-0.8,0.1-1.6,0.1-2.3,0.2C596.1,366,595.4,366,594.8,366z M599.8,359c-0.6,0-1.2,0.1-1.7,0.4
			s-1,0.6-1.3,1c-0.4,0.4-0.7,0.9-1,1.5c-0.3,0.6-0.4,1.2-0.5,1.8c0.6,0,1.4,0,2.2,0c0.9,0,1.7-0.1,2.4-0.3c0.8-0.2,1.4-0.4,2-0.8
			c0.5-0.4,0.8-0.9,0.8-1.5c0-0.5-0.2-1-0.6-1.4C601.6,359.2,600.9,359,599.8,359z"/>
	</g>
</g>
</svg>
