<?xml version="1.0" encoding="UTF-8"?>
<svg width="112px" height="112px" viewBox="0 0 112 112" version="1.1" xmlns="http://www.w3.org/2000/svg" xmlns:xlink="http://www.w3.org/1999/xlink">
    <title>42417D84-A562-43B4-A14F-C5726A60679B</title>
    <defs>
        <rect id="path-1" x="0" y="0" width="112" height="112"></rect>
    </defs>
    <g id="Web" stroke="none" stroke-width="1" fill="none" fill-rule="evenodd">
        <g id="9-0-0-Roadmap" transform="translate(-194.000000, -1729.000000)">
            <g id="calendar-/-calendar_plus" transform="translate(194.000000, 1729.000000)">
                <mask id="mask-2" fill="white">
                    <use xlink:href="#path-1"></use>
                </mask>
                <g id="calendar-/-calendar_plus-(Background/Mask)"></g>
                <path d="M51.3333333,74.6666667 L51.3333333,84 L60.6666667,84 L60.6666667,74.6666667 L70,74.6666667 L70,65.3333333 L60.6666667,65.3333333 L60.6666667,56 L51.3333333,56 L51.3333333,65.3333333 L42,65.3333333 L42,74.6666667 L51.3333333,74.6666667 Z M88.6666667,18.6666667 L79.3333333,18.6666667 L79.3333333,9.33333333 L70,9.33333333 L70,18.6666667 L42,18.6666667 L42,9.33333333 L32.6666667,9.33333333 L32.6666667,18.6666667 L23.3333333,18.6666667 C18.1859992,18.6666667 14,22.8526659 14,28 L14,93.3333333 C14,98.4806697 18.1859992,102.666667 23.3333333,102.666667 L88.6666667,102.666667 C93.814003,102.666667 98,98.4806697 98,93.3333333 L98,28 C98,22.8526659 93.814003,18.6666667 88.6666667,18.6666667 L88.6666667,18.6666667 Z M88.6760038,93.3333333 L23.3333333,93.3333333 L23.3333333,46.6666667 L88.6666667,46.6666667 L88.6760038,93.3333333 L88.6760038,93.3333333 Z M88.6680018,37.3333333 L88.6666667,28 L23.3333333,28 L23.3333333,37.3333333 L88.6680018,37.3333333 L88.6680018,37.3333333 Z" fill="#0A58F7" mask="url(#mask-2)"></path>
            </g>
        </g>
    </g>
</svg>