<?xml version="1.0" encoding="UTF-8"?>
<svg width="80px" height="80px" viewBox="0 0 80 80" version="1.1" xmlns="http://www.w3.org/2000/svg" xmlns:xlink="http://www.w3.org/1999/xlink">
    <title>5A1E7B6B-230F-4904-86CD-EE8158AE2C47</title>
    <defs>
        <rect id="path-1" x="0" y="0" width="80" height="80"></rect>
    </defs>
    <g id="Web" stroke="none" stroke-width="1" fill="none" fill-rule="evenodd">
        <g id="8-0-0-Contributing" transform="translate(-1000.000000, -1045.000000)">
            <g id="Group" transform="translate(736.000000, 988.000000)">
                <g id="file-/-file_blank" transform="translate(264.000000, 57.000000)">
                    <mask id="mask-2" fill="white">
                        <use xlink:href="#path-1"></use>
                    </mask>
                    <g id="file-/-file_blank-(Background/Mask)"></g>
                    <path d="M66.3466644,28.6200015 C66.1833311,28.2666681 65.9800006,27.9300007 65.6933339,27.6433341 L45.6933339,7.64333328 C45.4066673,7.3566666 45.0699999,7.15333294 44.7166665,6.98999961 C44.6166665,6.94333294 44.5100003,6.9166663 44.4033337,6.87999964 C44.1233337,6.7866663 43.8366676,6.7266667 43.5400009,6.71000004 C43.4666676,6.70333337 43.4033333,6.66666667 43.3333333,6.66666667 L20,6.66666667 C16.3233332,6.66666667 13.3333333,9.65666652 13.3333333,13.3333333 L13.3333333,66.6666667 C13.3333333,70.3433335 16.3233332,73.3333333 20,73.3333333 L60,73.3333333 C63.6766668,73.3333333 66.6666667,70.3433335 66.6666667,66.6666667 L66.6666667,30 C66.6666667,29.93 66.6299984,29.8666658 66.6233317,29.7933324 C66.606665,29.4999991 66.5500009,29.2133343 66.4566676,28.9333344 C66.4200009,28.8266677 66.3899978,28.7233348 66.3466644,28.6200015 Z M46.6666667,26.6666667 L46.6666667,18.0466668 L55.2866681,26.6666667 L46.6666667,26.6666667 Z M20,13.3333333 L40,13.3333333 L40,30 C40,31.8433332 41.4900001,33.3333333 43.3333333,33.3333333 L60,33.3333333 L60.0066694,66.6666667 L20,66.6666667 L20,13.3333333 Z" fill="#0A58F7" mask="url(#mask-2)"></path>
                </g>
            </g>
        </g>
    </g>
</svg>