<?xml version="1.0" encoding="UTF-8"?>
<svg width="14px" height="14px" viewBox="0 0 14 14" version="1.1" xmlns="http://www.w3.org/2000/svg" xmlns:xlink="http://www.w3.org/1999/xlink">
    <title>A665F2B2-3963-4137-A313-22F2B9F9164B@2x</title>
    <g id="Web" stroke="none" stroke-width="1" fill="none" fill-rule="evenodd" fill-opacity="0.9">
        <g id="1-0-0-Landing" transform="translate(-201.000000, -6722.000000)" fill="#FFFFFF" fill-rule="nonzero">
            <g id="Group-2" transform="translate(177.000000, 6627.000000)">
                <g id="Group-5-Copy" transform="translate(0.000000, 35.000000)">
                    <g id="Group-4" transform="translate(24.000000, 24.483955)">
                        <path d="M8.78125,49.34375 C10.1145833,48.8854167 11.203125,48.078125 12.046875,46.921875 C12.890625,45.765625 13.3125,44.4583333 13.3125,43 C13.3125,42.125 13.1458333,41.2760417 12.8125,40.453125 C12.4791667,39.6302083 12,38.90625 11.375,38.28125 C10.75,37.65625 10.0260417,37.1770833 9.203125,36.84375 C8.38020833,36.5104167 7.53125,36.34375 6.65625,36.34375 C5.78125,36.34375 4.93229167,36.5104167 4.109375,36.84375 C3.28645833,37.1770833 2.5625,37.65625 1.9375,38.28125 C1.3125,38.90625 0.833333333,39.6302083 0.5,40.453125 C0.166666667,41.2760417 0,42.125 0,43 C0,44.4583333 0.421875,45.765625 1.265625,46.921875 C2.109375,48.078125 3.20833333,48.8854167 4.5625,49.34375 C4.70833333,49.3645833 4.81770833,49.3385417 4.890625,49.265625 C4.96354167,49.1927083 5,49.1041667 5,49 L5,47.875 C4.22916667,48.0416667 3.625,47.9375 3.1875,47.5625 C2.95833333,47.3958333 2.8125,47.1979167 2.75,46.96875 C2.66666667,46.7395833 2.55208333,46.5416667 2.40625,46.375 C2.32291667,46.25 2.22916667,46.15625 2.125,46.09375 L2,46 C1.83333333,45.875 1.75,45.78125 1.75,45.71875 C1.75,45.65625 1.80208333,45.625 1.90625,45.625 L2.0625,45.59375 C2.33333333,45.6145833 2.58333333,45.7395833 2.8125,45.96875 C2.9375,46.0729167 3.02083333,46.1770833 3.0625,46.28125 C3.33333333,46.71875 3.6875,46.9583333 4.125,47 C4.39583333,47.0208333 4.69791667,46.96875 5.03125,46.84375 C5.07291667,46.4479167 5.20833333,46.1458333 5.4375,45.9375 C4.52083333,45.8333333 3.83333333,45.5833333 3.375,45.1875 C2.72916667,44.6458333 2.40625,43.8020833 2.40625,42.65625 C2.40625,41.96875 2.63541667,41.375 3.09375,40.875 C3.01041667,40.6875 2.96875,40.4791667 2.96875,40.25 C2.92708333,39.875 2.98958333,39.4895833 3.15625,39.09375 L3.34375,39.09375 C3.51041667,39.09375 3.70833333,39.1354167 3.9375,39.21875 C4.27083333,39.34375 4.625,39.53125 5,39.78125 C5.52083333,39.6354167 6.07291667,39.5625 6.65625,39.5625 C7.23958333,39.5625 7.79166667,39.6354167 8.3125,39.78125 C8.85416667,39.4270833 9.32291667,39.2083333 9.71875,39.125 C9.92708333,39.0833333 10.0729167,39.0729167 10.15625,39.09375 C10.3229167,39.4895833 10.3854167,39.875 10.34375,40.25 C10.34375,40.4791667 10.3020833,40.6875 10.21875,40.875 C10.6770833,41.375 10.90625,41.96875 10.90625,42.65625 C10.90625,43.8229167 10.5833333,44.6666667 9.9375,45.1875 C9.45833333,45.5833333 8.77083333,45.8333333 7.875,45.9375 C8.16666667,46.2083333 8.3125,46.625 8.3125,47.1875 L8.3125,49 C8.3125,49.1041667 8.34895833,49.1927083 8.421875,49.265625 C8.49479167,49.3385417 8.61458333,49.3645833 8.78125,49.34375 Z" id="-copy-4"></path>
                    </g>
                </g>
            </g>
        </g>
    </g>
</svg>