<?xml version="1.0" encoding="UTF-8"?>
<svg width="64px" height="64px" viewBox="0 0 64 64" version="1.1" xmlns="http://www.w3.org/2000/svg" xmlns:xlink="http://www.w3.org/1999/xlink">
    <!-- Generator: sketchtool 51.2 (57519) - http://www.bohemiancoding.com/sketch -->
    <title>7B4E387A-FD0A-4DCE-B937-865C34922F84</title>
    <desc>Created with sketchtool.</desc>
    <defs></defs>
    <g id="Page-1" stroke="none" stroke-width="1" fill="none" fill-rule="evenodd">
        <g id="1-0-0-Landing" transform="translate(-686.000000, -1281.000000)" fill="#256CFE" fill-rule="nonzero">
            <g id="ic-3d" transform="translate(686.000000, 1281.000000)">
                <path d="M1.42222222,0 C1.13777778,0 0.853333333,0.14111104 0.711111111,0.283333404 L13.369445,14.2222222 L55.8944441,14.2222222 L40.6749995,0.427777707 C40.390555,0.143333262 40.1072228,0 39.6805561,0 L1.42222222,0 Z M0,3.69722226 L0,39.6805561 C0,39.9650005 0.14111104,40.3911111 0.283333404,40.5333333 L11.3777778,54.1861106 L11.3777778,16.2138894 L0,3.69722226 Z M14.2222222,17.0666667 L14.2222222,56.8888889 L44.0888889,56.8888889 L44.0888889,28.7277781 L48.9250005,33.5638884 L56.8888889,41.5277781 L56.8888889,17.0666667 L14.2222222,17.0666667 Z M46.9333333,35.5555556 L46.9333333,59.7333333 L52.4805561,54.1861106 L56.6055552,64 L60.5861106,62.2944441 L56.4611115,52.6222222 L64,52.6222222 L46.9333333,35.5555556 Z" id="Shape"></path>
            </g>
        </g>
    </g>
</svg>