<?xml version="1.0" encoding="UTF-8"?>
<svg width="63px" height="60px" viewBox="0 0 63 60" version="1.1" xmlns="http://www.w3.org/2000/svg" xmlns:xlink="http://www.w3.org/1999/xlink">
    <!-- Generator: Sketch 50.2 (55047) - http://www.bohemiancoding.com/sketch -->
    <title>ic-control</title>
    <desc>Created with Sketch.</desc>
    <defs></defs>
    <g id="Page-1" stroke="none" stroke-width="1" fill="none" fill-rule="evenodd">
        <g id="1-0-0-Landing" transform="translate(-210.000000, -1275.000000)" fill-rule="nonzero">
            <g id="ic-control" transform="translate(210.000000, 1275.000000)">
                <path d="M48.9411765,0.0390625 C48.6127448,0.078125 48.3186271,0.24902375 48.1176471,0.5078125 L44.3529412,5.2734375 C43.6470588,4.36035125 42.5392163,3.75 41.2941176,3.75 L37.7647059,3.75 C35.6323526,3.75 33.8823529,5.49316375 33.8823529,7.6171875 L33.8823529,17.3828125 C33.8823529,19.5068362 35.6323526,21.25 37.7647059,21.25 L41.2941176,21.25 C42.5392163,21.25 43.6470588,20.6396487 44.3529412,19.7265625 L48.1176471,24.4921875 C48.4852944,24.9511725 49.1274516,25.0830075 49.6470588,24.8046875 L62.0784314,18.046875 C62.5980398,17.768555 62.8382356,17.1630862 62.6568634,16.606445 C62.4705882,16.0449225 61.916667,15.703125 61.3333333,15.78125 C61.1813722,15.8056638 61.034314,15.859375 60.9019608,15.9375 L49.4117647,22.2265625 L45.1764706,16.875 L45.1764706,8.1640625 L49.4117647,2.8125 L60.9019608,9.0625 C61.2843144,9.32128875 61.7794121,9.34082 62.1813722,9.11621125 C62.5833336,8.89160125 62.8235294,8.46191375 62.7990199,8.00293 C62.7794121,7.543945 62.5000006,7.1386725 62.0784314,6.953125 L49.6470588,0.1953125 C49.4313725,0.0732425 49.1862751,0.01953125 48.9411765,0.0390625 Z M11.2941176,1.25 C5.06862808,1.25 0,6.29882875 0,12.5 C0,18.7011725 5.06862808,23.75 11.2941176,23.75 C17.5196085,23.75 22.5882353,18.7011725 22.5882353,12.5 C22.5882353,6.29882875 17.5196085,1.25 11.2941176,1.25 Z M23.4509804,6.25 C24.4460787,8.14941375 25.0980392,10.2148438 25.0980392,12.5 C25.0980392,14.7851563 24.4460787,18.1005862 23.4509804,20 L31.3333333,20 C31.2401958,19.56543 31.254902,17.958985 31.254902,17.5 L31.254902,7.5 C31.254902,7.04101625 31.2401958,6.68457 31.3333333,6.25 L23.4509804,6.25 Z M11.2941176,6.6796875 C14.5049023,6.6796875 17.1372549,9.3017575 17.1372549,12.5 C17.1372549,15.6982425 14.5049023,18.3203125 11.2941176,18.3203125 C8.08333302,18.3203125 5.45098039,15.6982425 5.45098039,12.5 C5.45098039,9.3017575 8.08333302,6.6796875 11.2941176,6.6796875 Z M22.3529412,20.703125 C19.833334,24.052735 15.8137261,26.25 11.2941176,26.25 C9.75490259,26.25 8.28431435,25.97168 6.90196078,25.5078125 L17.9215686,46.2109375 L36.8235294,46.2109375 L22.3529412,20.703125 Z M8.62745098,48.75 C6.59313694,48.75 5.01960784,50.3955075 5.01960784,52.5 L5.01960784,58.75 C5.01960784,59.4775388 5.54411796,60 6.2745098,60 L48.9411765,60 C49.6715683,60 50.1960784,59.4775388 50.1960784,58.75 L50.1960784,52.5 C50.1960784,50.3955075 48.6225493,48.75 46.5882353,48.75 L8.62745098,48.75 Z" id="Shape"></path>
            </g>
        </g>
    </g>
</svg>