<?xml version="1.0" encoding="UTF-8"?>
<svg width="64px" height="58px" viewBox="0 0 64 58" version="1.1" xmlns="http://www.w3.org/2000/svg" xmlns:xlink="http://www.w3.org/1999/xlink">
    <!-- Generator: sketchtool 51.2 (57519) - http://www.bohemiancoding.com/sketch -->
    <title>2E0FD154-1732-4697-BDAE-FEF35982ADC3</title>
    <desc>Created with sketchtool.</desc>
    <defs></defs>
    <g id="Page-1" stroke="none" stroke-width="1" fill="none" fill-rule="evenodd">
        <g id="1-0-0-Landing" transform="translate(-1049.000000, -983.000000)" fill="#256CFE" fill-rule="nonzero">
            <g id="ic-kinematics" transform="translate(1049.000000, 983.000000)">
                <path d="M31.6294458,16.6662817 C30.6951984,16.6807432 29.9491581,17.4414991 29.961952,18.3666667 L29.961952,40.8582699 L12.2117453,50.4446406 C11.6505287,50.7150461 11.2849038,51.2691144 11.2601637,51.8866685 C11.2354235,52.5042225 11.5555755,53.0852312 12.0933968,53.3988117 C12.631218,53.7123921 13.2995925,53.7077507 13.8329197,53.3867319 L31.6592223,43.7610469 L49.4789076,53.3867319 C50.0122346,53.7077479 50.6806071,53.7123877 51.2184266,53.3988075 C51.756246,53.0852274 52.0763973,52.5042205 52.0516583,51.8866681 C52.0269193,51.2691157 51.6612972,50.7150478 51.1000833,50.4446406 L33.3498759,40.8582699 L33.3498759,18.3666667 C33.356146,17.9132511 33.1767925,17.4766336 32.8526817,17.1562991 C32.5285709,16.8359646 32.0873114,16.6592 31.6294458,16.6662817 Z M27.4640205,0.312745098 L30.2894948,8.58205423 L30.2531017,8.81139315 C30.1633218,9.2978541 29.6644229,9.53217303 28.8072781,9.53217303 C28.7717049,9.53217286 28.3829677,9.53233021 28.3473945,9.5256204 L28.3473945,11.5110405 C28.3846617,11.5194277 29.2729059,11.5192701 29.3101731,11.5175943 C31.6851077,11.5175943 32.8899382,10.6924964 33.5980143,8.50342371 L36.261373,0.312745098 L33.4756001,0.312745098 L31.9966917,6.32797947 L31.854426,6.32797947 L30.3755176,0.312745098 L27.4640205,0.312745098 Z M0.122415177,49.4421569 L0.122415177,51.4472341 L4.01654268,51.4472341 L4.01654268,51.5881149 L0.0297766326,56.4042343 L0.0297766326,57.8294118 L7.38130691,57.8294118 L7.38130691,55.8243345 L3.6162117,55.8243345 L3.6162117,55.6834538 L7.24565765,51.0770157 L7.24565765,49.4421569 L0.122415177,49.4421569 Z M55.0835401,49.4421569 L57.6310996,53.7078627 L55.1000833,57.8294118 L57.9057078,57.8294118 L59.2622003,55.260815 L59.404466,55.260815 L60.7675769,57.8294118 L63.7121588,57.8294118 L61.1414394,53.5931922 L63.7055422,49.4421569 L60.7907367,49.4421569 L59.5368068,52.0566219 L59.3912328,52.0566219 L58.1505378,49.4421569 L55.0835401,49.4421569 Z" id="Shape"></path>
            </g>
        </g>
    </g>
</svg>