<?xml version="1.0" encoding="UTF-8"?>
<svg width="64px" height="54px" viewBox="0 0 64 54" version="1.1" xmlns="http://www.w3.org/2000/svg" xmlns:xlink="http://www.w3.org/1999/xlink">
    <!-- Generator: sketchtool 51.2 (57519) - http://www.bohemiancoding.com/sketch -->
    <title>92CB8528-D212-4F78-8685-5496B7917067</title>
    <desc>Created with sketchtool.</desc>
    <defs></defs>
    <g id="Page-1" stroke="none" stroke-width="1" fill="none" fill-rule="evenodd">
        <g id="1-0-0-Landing" transform="translate(-329.000000, -988.000000)" fill="#256CFE" fill-rule="nonzero">
            <g id="ic-motion" transform="translate(329.000000, 988.000000)">
                <path d="M13.981982,0.611607143 C13.7374509,0.624441143 13.4929231,0.650112429 13.2612613,0.714285714 C11.7297289,1.00948743 10.6100403,2.33147486 10.5842986,3.89732143 C9.95366878,26.0887269 0.906048906,48.7678571 0.906048906,48.7678571 C0.223939048,50.4748876 1.04761987,52.4001124 2.75933076,53.0803571 C4.47104165,53.7606019 6.40154523,52.9391733 7.08365508,51.2321429 C7.08365508,51.2321429 16.5045045,27.9112731 17.1737452,4.10267857 C17.2252252,3.21707671 16.9163449,2.34430886 16.324326,1.67689814 C15.7194345,1.02232143 14.870012,0.637278429 13.981982,0.611607143 Z M37.045045,0.611607143 C36.800514,0.624441143 36.5559862,0.650112429 36.3243243,0.714285714 C34.792792,1.00948743 33.6731033,2.33147486 33.6473616,3.89732143 C33.2870013,16.7706481 30.0952381,29.7209821 27.4697555,38.3973214 C25.7323029,32.2622784 23.132562,24.2148446 19.4388674,16.0133929 C18.8725869,20.2617196 18.1132553,24.3945304 17.2767053,28.2321429 C21.6782513,40.284041 23.6731008,49.974332 23.7631918,50.4107143 C23.7631918,50.4235483 23.7631918,50.6160714 23.7631918,50.6160714 C23.8146718,50.9369411 23.9305011,51.2449769 24.0720721,51.5401786 C24.2393814,51.8738856 24.5225233,52.1049107 24.7927928,52.3616071 C24.7927928,52.4001124 24.7927928,52.4257804 24.7927928,52.4642857 C24.8314037,52.502791 24.857142,52.5412963 24.8957529,52.5669643 C25.1145423,52.7338161 25.3590734,52.875 25.6164736,52.9776786 C25.6936953,53.0161839 25.7451754,53.0546891 25.8223938,53.0803571 C25.8610047,53.0803571 25.8867431,53.0803571 25.9253539,53.0803571 C25.9510956,53.0931911 26.0025756,53.0675231 26.028314,53.0803571 C26.0926633,53.1188624 26.169885,53.1573677 26.2342342,53.1830357 C26.4401544,53.234375 26.6460746,53.2728803 26.8519949,53.2857143 C26.8906057,53.2857143 26.9163441,53.2857143 26.954955,53.2857143 C27.0579151,53.2857143 27.1608752,53.2857143 27.2638353,53.2857143 C27.3667954,53.2728803 27.4697555,53.3113856 27.5727156,53.2857143 C27.791505,53.247209 27.9974252,53.1573677 28.1904762,53.0803571 C28.7052767,52.887834 29.1685972,52.5669643 29.5289575,52.15625 C29.6061793,52.0664054 29.6705285,51.9508929 29.7348777,51.8482143 C29.850707,51.6813624 29.9536671,51.5145106 30.043758,51.3348214 C30.0823689,51.2963161 30.1081073,51.2706481 30.1467181,51.2321429 C30.1467181,51.2321429 39.5675676,27.9112731 40.2368082,4.10267857 C40.2882883,3.21707671 39.979408,2.34430886 39.387389,1.67689814 C38.7824976,1.02232143 37.9330751,0.637278429 37.045045,0.611607143 Z M60.1081081,0.611607143 C59.863577,0.624441143 59.6190493,0.650112429 59.3873874,0.714285714 C57.855855,1.00948743 56.7361664,2.33147486 56.7104247,3.89732143 C56.3500644,16.7706481 53.1583012,29.7209821 50.5328185,38.3973214 C48.795366,32.2622784 46.195625,24.2148446 42.5019305,16.0133929 C41.9356499,20.2617196 41.1763184,24.4073677 40.3397683,28.2321429 C44.8056636,40.4637269 46.8005164,50.4620536 46.8262548,50.6160714 C46.8777349,50.9369411 46.9935642,51.2449769 47.1351351,51.5401786 C47.3024445,51.8738856 47.5855864,52.1049107 47.8558559,52.3616071 C47.8558559,52.4001124 47.8558559,52.4257804 47.8558559,52.4642857 C47.8944667,52.502791 47.9202051,52.5412963 47.958816,52.5669643 C48.1776054,52.7338161 48.4221364,52.875 48.6795367,52.9776786 C48.7567584,53.0161839 48.8082385,53.0546891 48.8854569,53.0803571 C48.9240677,53.0803571 48.9498061,53.0803571 48.988417,53.0803571 C49.0141587,53.0931911 49.0656387,53.0675231 49.0913771,53.0803571 C49.3616465,53.1830357 49.6319193,53.247209 49.9150579,53.2857143 C49.9536688,53.2857143 49.9794072,53.2857143 50.018018,53.2857143 C50.1209781,53.2857143 50.2239382,53.2857143 50.3268983,53.2857143 C50.4298584,53.2728803 50.5328185,53.3113856 50.6357786,53.2857143 C50.854568,53.247209 51.0604882,53.1573677 51.2535393,53.0803571 C51.7683398,52.887834 52.2316602,52.5669643 52.5920206,52.15625 C52.6692423,52.0664054 52.7335916,51.9508929 52.7979408,51.8482143 C52.952381,51.6556911 53.0939519,51.450334 53.2097812,51.2321429 C53.2097812,51.2321429 62.6306306,27.9112731 63.2998713,4.10267857 C63.3513514,3.21707671 63.042471,2.34430886 62.4504521,1.67689814 C61.8455607,1.02232143 60.9961382,0.637278429 60.1081081,0.611607143 Z" id="Shape"></path>
            </g>
        </g>
    </g>
</svg>