<?xml version="1.0" encoding="UTF-8"?>
<svg width="64px" height="46px" viewBox="0 0 64 46" version="1.1" xmlns="http://www.w3.org/2000/svg" xmlns:xlink="http://www.w3.org/1999/xlink">
    <!-- Generator: sketchtool 51.2 (57519) - http://www.bohemiancoding.com/sketch -->
    <title>54A04298-54BB-4D3B-B929-2179E167A692</title>
    <desc>Created with sketchtool.</desc>
    <defs></defs>
    <g id="Page-1" stroke="none" stroke-width="1" fill="none" fill-rule="evenodd">
        <g id="1-0-0-Landing" transform="translate(-688.000000, -992.000000)" fill="#0A58F7">
            <g id="ic-manipulation" transform="translate(687.000000, 992.000000)">
                <path d="M36.6181399,27.3872832 C36.4066238,28.0355053 36.2921811,28.7282483 36.2921811,29.4479769 C36.2921811,31.3647509 37.1038757,33.0901286 38.399177,34.2928807 L38.399177,45.3415638 C38.399177,45.7052081 38.104385,46 37.7407407,46 L28.5226337,46 C28.1589895,46 27.8641975,45.7052081 27.8641975,45.3415638 L27.8641975,34.1671677 C29.0825889,32.9714319 29.8395062,31.2989444 29.8395062,29.4479769 C29.8395062,28.7282483 29.7250634,28.0355053 29.5135473,27.3872832 L36.6181399,27.3872832 Z" id="Combined-Shape"></path>
                <path d="M15.4786379,11.2452735 L15.4786379,11.2452735 C17.1569297,11.2931964 18.5254949,12.6057447 18.6434749,14.2805703 L20.092357,34.8482896 C20.269671,37.3654097 18.3728834,39.5496801 15.8557633,39.7269941 C15.7489103,39.7345211 15.6418257,39.7382881 15.5347079,39.7382881 C15.5347079,39.7382881 15.5347079,39.7382881 15.5347079,39.7382881 C15.5347079,39.7382881 15.5347079,39.7382881 15.5347079,39.7382881 L15.5347079,39.7382881 C12.9887465,39.7382881 10.924837,37.6743786 10.924837,35.1284172 C10.924837,35.0353063 10.927658,34.9422167 10.9332961,34.8492767 L12.1704573,14.4560965 C12.2774976,12.6916221 13.7117539,11.299575 15.4786379,11.2452735 Z" id="Rectangle-20-Copy" transform="translate(15.514142, 25.491781) rotate(-60.000000) translate(-15.514142, -25.491781) "></path>
                <path d="M50.3757572,11.2452735 L50.3757572,11.2452735 C52.054049,11.2931964 53.4226142,12.6057447 53.5405943,14.2805703 L54.9894764,34.8482896 C55.1667904,37.3654097 53.2700027,39.5496801 50.7528826,39.7269941 C50.6460297,39.7345211 50.538945,39.7382881 50.4318273,39.7382881 C50.4318273,39.7382881 50.4318273,39.7382881 50.4318273,39.7382881 C50.4318273,39.7382881 50.4318273,39.7382881 50.4318273,39.7382881 L50.4318273,39.7382881 C47.8858659,39.7382881 45.8219564,37.6743786 45.8219564,35.1284172 C45.8219564,35.0353063 45.8247774,34.9422167 45.8304155,34.8492767 L47.0675766,14.4560965 C47.1746169,12.6916221 48.6088733,11.299575 50.3757572,11.2452735 Z" id="Rectangle-20-Copy-2" transform="translate(50.411261, 25.491781) rotate(60.000000) translate(-50.411261, -25.491781) "></path>
                <path d="M3.50205761,4.72326096e-16 L3.50205761,0 C4.9497061,0.257790856 6.00411523,1.51655218 6.00411523,2.98697465 L6.00411523,15.9537572 C4.52812071,16.1194605 3.52674897,16.4682081 3,17 C2.47325103,17.5317919 1.80658436,18.5317919 1,20 L1,2.50205761 C1,1.12020935 2.12020935,6.97930618e-16 3.50205761,4.4408921e-16 Z" id="Rectangle-20-Copy-3"></path>
                <path d="M62.3662551,4.72326096e-16 L62.3662551,0 C63.8139036,0.257790856 64.8683128,1.51655218 64.8683128,2.98697465 L64.8683128,15.9537572 C63.681135,16.0000848 62.6715328,16.4432448 61.8395062,17.283237 C61.0074795,18.1232292 60.3490433,18.9209171 59.8641975,19.6763006 L59.8641975,2.50205761 C59.8641975,1.12020935 60.9844069,6.97930618e-16 62.3662551,4.4408921e-16 Z" id="Rectangle-20-Copy-4" transform="translate(62.366255, 9.838150) scale(-1, 1) translate(-62.366255, -9.838150) "></path>
            </g>
        </g>
    </g>
</svg>