<svg xmlns="http://www.w3.org/2000/svg" width="68" height="32" viewBox="0 0 68 32">
  <g fill="#256CFE" stroke="#256CFE" stroke-width="2" transform="translate(2 1)">
    <polygon points="0 15.974 0 14.416 64 14.416 64 15.974"/>
    <path d="M1.58024691,14.5947464 L1.18518519,15.1948052 L0,14.4155844 C5.80769596,5.11510104 11.7742144,0 16.9876543,0 C20.3596917,0 23.4408435,1.62446651 26.4445208,4.6809137 C28.7612971,7.0383921 30.8211706,9.9368838 33.6970353,14.5947464 C34.0448056,15.1580088 35.9389896,18.2620466 36.4701961,19.1163328 C37.5073031,20.7842078 38.3414832,22.0572741 39.1409841,23.1706647 C41.6946662,26.7269406 43.7985677,28.4415584 45.8271605,28.4415584 C50.7643162,28.4415584 56.2353035,24.1753533 62.1603687,15.5374213 L62.6030822,14.8920056 L64,15.974026 C57.8098388,24.9984316 51.4249842,30 45.8271605,30 C43.1210551,30 40.6801755,28.010755 37.851364,24.0713319 C37.0282293,22.9250287 36.1768212,21.6256701 35.1230737,19.9310338 C34.5876248,19.0699252 32.6916785,15.9629994 32.3473143,15.4052536 C29.5289911,10.8405874 27.5222773,8.01689795 25.3097646,5.76551488 C22.5775861,2.98533631 19.8711719,1.55844156 16.9876543,1.55844156 C12.4847895,1.55844156 7.12620514,5.71341157 1.58024691,14.5947464 Z"/>
  </g>
</svg>
