<?xml version="1.0" encoding="UTF-8"?>
<svg width="80px" height="80px" viewBox="0 0 80 80" version="1.1" xmlns="http://www.w3.org/2000/svg" xmlns:xlink="http://www.w3.org/1999/xlink">
    <title>EEC80766-672D-4603-8AC9-01AA86C4D477</title>
    <defs>
        <rect id="path-1" x="0" y="0" width="80" height="80"></rect>
    </defs>
    <g id="Web" stroke="none" stroke-width="1" fill="none" fill-rule="evenodd">
        <g id="8-0-0-Contributing" transform="translate(-360.000000, -1045.000000)">
            <g id="user-/-user_voice" transform="translate(360.000000, 1045.000000)">
                <mask id="mask-2" fill="white">
                    <use xlink:href="#path-1"></use>
                </mask>
                <g id="user-/-user_voice-(Background/Mask)"></g>
                <path d="M56.5000025,13.4999553 C60.9033362,17.9099552 63.3333333,23.7699556 63.3333333,29.9999555 C63.3333333,36.2299538 60.9033362,42.089955 56.5000025,46.4999549 L61.2133344,51.2132899 C66.8800036,45.5432892 70,38.0099551 70,29.9999555 C70,21.9899551 66.8800036,14.456621 61.2133344,8.78662109 L56.5000025,13.4999553 Z M47.0699056,22.9332972 C48.9599069,24.8166307 49.9999046,27.32663 49.9999046,29.9999634 C49.9999046,32.6732969 48.9599069,35.1832962 47.0699056,37.0666313 L51.7832375,41.7866325 C54.9299049,38.6399651 56.6665713,34.4566298 56.6665713,29.9999634 C56.6665713,25.5432971 54.9299049,21.3599642 51.7832375,18.2132975 L47.0699056,22.9332972 Z M40,26.6666667 C40,34.0304629 34.0304629,40 26.6666667,40 C19.3028704,40 13.3333333,34.0304629 13.3333333,26.6666667 C13.3333333,19.3028704 19.3028704,13.3333333 26.6666667,13.3333333 C34.0304629,13.3333333 40,19.3028704 40,26.6666667 C40,31.5758642 40,31.5758642 40,26.6666667 Z M33.3333333,26.6666667 C33.3333333,30.3485648 30.3485648,33.3333333 26.6666667,33.3333333 C22.9847685,33.3333333 20,30.3485648 20,26.6666667 C20,22.9847685 22.9847685,20 26.6666667,20 C30.3485648,20 33.3333333,22.9847685 33.3333333,26.6666667 C33.3333333,29.1212654 33.3333333,29.1212654 33.3333333,26.6666667 Z M46.6666667,63.3333333 C46.6666667,52.2876382 37.712361,43.3333333 26.6666667,43.3333333 C15.6209715,43.3333333 6.66666667,52.2876382 6.66666667,63.3333333 L13.3333333,63.3333333 C13.3333333,55.9695363 19.3028696,50 26.6666667,50 C34.0304629,50 40,55.9695363 40,63.3333333 L46.6666667,63.3333333 Z" fill="#0A58F7" mask="url(#mask-2)"></path>
            </g>
        </g>
    </g>
</svg>