<svg xmlns="http://www.w3.org/2000/svg" viewBox="0 0 551.29 99.06"><defs><style>.cls-1{fill:#fff;}.cls-1,.cls-2{fill-rule:evenodd;}.cls-2,.cls-3{fill:#0a58f7;}</style></defs><title>two-logo-light-rgb</title><g id="Layer_2" data-name="Layer 2"><g id="Layer_1-2" data-name="Layer 1"><g id="two-logo-light-rgb"><path class="cls-1" d="M361.86,55.63V55.4a22.35,22.35,0,0,0,.47-4.57,11.24,11.24,0,0,0-2.58-7.8q-2.58-2.87-7.5-2.87a14.41,14.41,0,0,0-10.32,4.16,20.51,20.51,0,0,0-5.74,11.08v.23ZM341.11,92.68q-11.25,0-17.35-5.63T317.66,71a39.51,39.51,0,0,1,.59-7.15q.12-.83,1.29-5.86,3.4-13.36,12.72-21a34,34,0,0,1,22.21-7.62q11.61,0,17.53,5.92t5.92,16.24a47.1,47.1,0,0,1-.94,8.79l-.58,2.46a3.43,3.43,0,0,1-1.23,2,3.55,3.55,0,0,1-2.29.82h-38.8l-.24.94a24.65,24.65,0,0,0-.35,4,12.34,12.34,0,0,0,2.52,8q2.52,3.11,7.33,3.11,6.68,0,12.07-5.39a7.65,7.65,0,0,1,2-1.59,5.86,5.86,0,0,1,2.11-.29h10.31a2,2,0,0,1,1.64.7,2,2,0,0,1,.36,1.76q-.82,2.82-5,6.57a37,37,0,0,1-10.9,6.5A38.77,38.77,0,0,1,341.11,92.68Zm-71.63-1.17a3.06,3.06,0,0,1-2.34-.77,4.91,4.91,0,0,1-1.06-2.16L255.65,33.71a2.65,2.65,0,0,1,.53-2.34,2.94,2.94,0,0,1,2.28-.82h9a2.7,2.7,0,0,1,2.93,2.69l6.68,40.45,24.15-40.92a4.19,4.19,0,0,1,3.64-2.22H315.2a2.22,2.22,0,0,1,1.53.52,1.87,1.87,0,0,1,.58,1.47,3.21,3.21,0,0,1-.47,1.64l-33.53,54.4a7.5,7.5,0,0,1-1.93,2.22,4.46,4.46,0,0,1-2.64.71Zm-59.2-10.67A15.51,15.51,0,0,0,220.89,77q4.4-3.87,6.27-11.37.83-3.28,2-9.15a26.25,26.25,0,0,0,.47-5q0-10.32-10.08-10.31a15,15,0,0,0-10.55,4q-4.34,4-6.21,11.37a57,57,0,0,0-2,9.15,27.74,27.74,0,0,0-.47,5.16Q200.31,80.84,210.28,80.84Zm-1.17,11.84q-11.85,0-18.47-5.69T184,71.46a27.66,27.66,0,0,1,.47-5.28,98,98,0,0,1,2.22-10.31q3.16-12.55,11.73-19.52t22.27-7q11.85,0,18.52,5.75t6.69,15.71a44.5,44.5,0,0,1-.47,5q-1.75,8.43-2.23,10.31Q239.94,78.73,231.5,85.7T209.11,92.68ZM90.58,91.51a2.23,2.23,0,0,1-2.34-2.82l16.18-76.32a3.4,3.4,0,0,1,1.23-2.11,3.51,3.51,0,0,1,2.28-.82h9.5a3.25,3.25,0,0,1,3.17,2.23l13.71,42,31.54-42a5.06,5.06,0,0,1,4-2.23h9.38a2.34,2.34,0,0,1,1.94.82,2.56,2.56,0,0,1,.41,2.11l-16.3,76.32a3.22,3.22,0,0,1-1.23,2,3.49,3.49,0,0,1-2.17.77H151.78a2.34,2.34,0,0,1-1.94-.82,2.41,2.41,0,0,1-.41-2l10.44-49.35L137.71,69.23a11.37,11.37,0,0,1-2.17,1.94,4.08,4.08,0,0,1-2.28.64h-4.93a3.31,3.31,0,0,1-3.4-2.58L114.85,37.58,104.07,88.69a3.54,3.54,0,0,1-1.18,2,3.15,3.15,0,0,1-2.11.82Z"/><path class="cls-1" d="M448,91.51q-9.72,0-14.36-3.7T429,76.73a32.9,32.9,0,0,1,.82-7.15l5.75-26.49h-9.26a2.15,2.15,0,0,1-1.88-.82,2.44,2.44,0,0,1-.35-2l1.41-6.92a3.31,3.31,0,0,1,1.23-2,3.45,3.45,0,0,1,2.28-.82h9.15l4.22-19.47a3.33,3.33,0,0,1,3.28-2.81h9.73a2.29,2.29,0,0,1,1.93.82,2.32,2.32,0,0,1,.41,2l-4.22,19.47h14.66a2.13,2.13,0,0,1,1.87.82,2.48,2.48,0,0,1,.36,2l-1.53,6.92a2.91,2.91,0,0,1-1.11,2,3.5,3.5,0,0,1-2.29.82H451l-5.51,25.2a25.52,25.52,0,0,0-.71,5.4A4.67,4.67,0,0,0,446,77.32c.86.78,2.35,1.17,4.46,1.17H459a2.17,2.17,0,0,1,1.88.82,2.47,2.47,0,0,1,.35,2l-1.52,7.38a3.22,3.22,0,0,1-1.23,2,3.51,3.51,0,0,1-2.17.77Zm-59.43,0a2.34,2.34,0,0,1-1.94-.82,2.37,2.37,0,0,1-.41-2l16.42-76.43a2.86,2.86,0,0,1,1.11-2,3.38,3.38,0,0,1,2.17-.82h11.37a2.2,2.2,0,0,1,1.82.82,2.37,2.37,0,0,1,.41,2l-16.3,76.43a3.53,3.53,0,0,1-1.17,2,3.17,3.17,0,0,1-2.11.82Z"/><path class="cls-2" d="M10.75,95.51A6.5,6.5,0,1,0,4.25,89,6.5,6.5,0,0,0,10.75,95.51Zm2-79A6.5,6.5,0,1,0,6.25,10,6.5,6.5,0,0,0,12.75,16.51Zm40,41a6.5,6.5,0,1,0-6.5-6.5A6.5,6.5,0,0,0,52.75,57.51Zm7.69-13.95a9.25,9.25,0,0,1,.88.89,10,10,0,0,1-1,14.1L16.56,96.61A10,10,0,0,1,3.44,81.51l35.67-31L5.67,17.07A10,10,0,0,1,19.82,2.93Z"/><path class="cls-3" d="M481.57,89.51a2.09,2.09,0,0,1-1.85-.82,2.39,2.39,0,0,1-.35-2l1.27-6a9.32,9.32,0,0,1,4.18-5.45l21.81-18q14.14-9.51,20-14.79t6.9-10.27a20.45,20.45,0,0,0,.35-3.48,7.76,7.76,0,0,0-2.38-6.09c-1.59-1.43-4-2.14-7.25-2.14a14.42,14.42,0,0,0-9.69,3.42,20.68,20.68,0,0,0-6,8.87,4.47,4.47,0,0,1-4.18,2.67H494a2,2,0,0,1-1.62-.7A1.92,1.92,0,0,1,492,33a31.69,31.69,0,0,1,6.5-12.81,36.11,36.11,0,0,1,12.29-9.63,36.51,36.51,0,0,1,16.36-3.66q11.83,0,18,5.17a16.91,16.91,0,0,1,6.15,13.63,25.49,25.49,0,0,1-.7,5.8,28.79,28.79,0,0,1-7.25,14q-5.75,6.33-16.41,13.63L507.32,75.47h32.83a2.14,2.14,0,0,1,1.86.81,2.7,2.7,0,0,1,.35,2.09l-1.74,8.35a3.18,3.18,0,0,1-1.22,2,3.65,3.65,0,0,1-2.26.76Z"/></g></g></g></svg>