<!DOCTYPE svg PUBLIC "-//W3C//DTD SVG 1.1//EN" "http://www.w3.org/Graphics/SVG/1.1/DTD/svg11.dtd">
<!-- Uploaded to: SVG Repo, www.svgrepo.com, Transformed by: SVG Repo Mixer Tools -->
<svg width="800px" height="800px" viewBox="0 0 20 20" xmlns="http://www.w3.org/2000/svg" fill="none">
<g id="SVGRepo_bgCarrier" stroke-width="0"/>
<g id="SVGRepo_tracerCarrier" stroke-linecap="round" stroke-linejoin="round"/>
<g id="SVGRepo_iconCarrier"> <path fill="#193c47" fill-rule="evenodd" d="M10 3a7 7 0 100 14 7 7 0 000-14zm-9 7a9 9 0 1118 0 9 9 0 01-18 0zm10.01 4a1 1 0 01-1 1H10a1 1 0 110-2h.01a1 1 0 011 1zM11 6a1 1 0 10-2 0v5a1 1 0 102 0V6z"/> </g>
</svg>